<svg width="194" height="31" viewBox="0 0 194 31" fill="none" xmlns="http://www.w3.org/2000/svg">
<path d="M11.5141 8.74459H16.0371V22.8335H11.5141V21.1415C10.2864 23.0287 8.54175 23.3216 7.37868 23.3216C5.3756 23.3216 3.6633 22.801 2.14484 21.1741C0.626379 19.5797 0.0771484 17.7576 0.0771484 15.9029C0.0771484 13.5277 0.949455 11.5103 2.24176 10.2088C3.46945 8.97236 5.14945 8.28906 7.12022 8.28906C8.3156 8.28906 10.2218 8.5819 11.5141 10.339V8.74459ZM5.76329 13.2023C5.27868 13.6904 4.72945 14.5038 4.72945 15.7728C4.72945 17.0418 5.27868 17.8552 5.66637 18.3107C6.28022 18.9615 7.28175 19.417 8.34791 19.417C9.25252 19.417 10.0925 19.0266 10.7064 18.4409C11.2879 17.8877 11.8048 16.9767 11.8048 15.7728C11.8048 14.7641 11.4171 13.8205 10.771 13.1698C10.0925 12.519 9.09098 12.1936 8.25098 12.1936C7.24945 12.1936 6.34483 12.6166 5.76329 13.2023Z" fill="#212B35"/>
<path d="M36.1324 12.4215V22.8662H31.6094V4.18945H36.1324V8.74476H38.9109V12.4215H36.1324Z" fill="#212B35"/>
<path d="M43.1434 0.0898438C44.6295 0.0898438 45.7926 1.26121 45.7926 2.75795C45.7926 4.2547 44.6295 5.42606 43.1434 5.42606C41.6572 5.42606 40.4941 4.2547 40.4941 2.75795C40.4941 1.26121 41.6572 0.0898438 43.1434 0.0898438ZM45.4049 8.74493V22.8338H40.8818V8.74493H45.4049Z" fill="#212B35"/>
<path d="M78.4558 16.5862H68.0204C68.0204 17.3346 68.3112 18.3433 68.8604 18.994C69.5388 19.7424 70.5081 19.8726 71.1865 19.8726C71.8327 19.8726 72.5435 19.7424 72.9958 19.4496C73.0604 19.417 73.5773 19.0591 73.965 18.2782L78.2296 18.7337C77.6158 20.7185 76.3558 21.7598 75.5158 22.2804C74.1588 23.0938 72.6727 23.3216 71.0896 23.3216C68.9896 23.3216 67.1481 22.9311 65.5004 21.3042C64.2727 20.0678 63.4004 18.2131 63.4004 15.8704C63.4004 13.853 64.1112 11.7706 65.5327 10.3064C67.2127 8.61444 69.345 8.28906 70.8958 8.28906C72.4788 8.28906 74.7081 8.5819 76.4527 10.404C78.1004 12.1611 78.4234 14.3737 78.4234 16.1307V16.5862H78.4558ZM74.2881 13.853C74.2558 13.7229 74.0296 12.8444 73.3835 12.1936C72.8665 11.7055 72.1558 11.4127 71.2512 11.4127C70.0881 11.4127 69.4096 11.9008 68.9573 12.3238C68.6019 12.7142 68.3112 13.2023 68.1819 13.853H74.2881Z" fill="#212B35"/>
<path d="M84.5621 30.0898H80.0391V8.7449H84.5621V10.4043C86.0483 8.4846 87.8575 8.25684 88.9237 8.25684C91.4437 8.25684 92.9944 9.36313 93.8667 10.2416C95.1267 11.5106 95.9667 13.4304 95.9667 15.7406C95.9667 18.1809 95.1267 20.003 93.7375 21.4022C92.3483 22.8013 90.8621 23.2894 88.9883 23.2894C86.2098 23.2894 85.0144 21.8577 84.5298 21.2069V30.0898H84.5621ZM85.3375 13.2351C84.6267 13.951 84.2714 14.9596 84.2714 15.8382C84.2714 16.7167 84.6268 17.6278 85.2729 18.3436C85.9191 18.9943 86.8883 19.4173 87.8575 19.4173C88.6975 19.4173 89.6021 19.0594 90.2806 18.4412C90.9914 17.7579 91.3791 16.6842 91.3791 15.7406C91.3791 14.6993 90.9267 13.7883 90.3129 13.1701C89.6667 12.5518 88.7621 12.1939 87.8575 12.1939C86.5975 12.1939 85.7575 12.7796 85.3375 13.2351Z" fill="#212B35"/>
<path d="M97.582 8.74481H102.105V10.9574C102.525 10.1765 103.139 9.42811 103.85 9.00512C104.593 8.51705 105.4 8.41943 106.273 8.41943C106.854 8.41943 107.242 8.48451 107.759 8.6472L107.5 12.9097C106.919 12.5843 106.24 12.3891 105.465 12.3891C104.496 12.3891 103.785 12.747 103.204 13.3327C102.202 14.4064 102.105 15.9357 102.105 17.1396V22.8663H97.582V8.74481Z" fill="#212B35"/>
<path d="M122.846 21.0439C121.586 22.3129 119.454 23.3216 116.74 23.3216C114.026 23.3216 111.862 22.3129 110.634 21.0439C109.213 19.6123 108.534 17.5949 108.534 15.8053C108.534 14.0157 109.213 11.9658 110.634 10.5667C111.894 9.29774 114.026 8.28906 116.74 8.28906C119.454 8.28906 121.619 9.29774 122.846 10.5667C124.268 11.9984 124.946 14.0157 124.946 15.8053C124.946 17.5949 124.268 19.6123 122.846 21.0439ZM114.188 13.1372C113.542 13.788 113.154 14.6665 113.154 15.8053C113.154 17.1068 113.671 17.9203 114.188 18.4734C114.737 19.0266 115.577 19.4821 116.773 19.4821C117.774 19.4821 118.614 19.1242 119.293 18.4734C119.939 17.8227 120.326 16.9441 120.326 15.8053C120.326 14.6665 119.939 13.8205 119.293 13.1372C118.646 12.4865 117.774 12.1285 116.74 12.1285C115.706 12.1285 114.834 12.4865 114.188 13.1372Z" fill="#212B35"/>
<path d="M134.477 12.3565C133.798 11.9335 132.861 11.5756 131.989 11.5756C131.504 11.5756 130.987 11.7057 130.697 11.9986C130.535 12.1613 130.406 12.4216 130.406 12.6168C130.406 12.9422 130.632 13.1374 130.858 13.235C131.181 13.4302 131.634 13.5278 132.215 13.7231L133.411 14.1135C134.186 14.3738 135.026 14.6667 135.737 15.35C136.544 16.0983 136.835 16.9769 136.835 18.0506C136.835 19.9053 136.027 21.1092 135.381 21.7599C133.992 23.1591 132.312 23.3868 130.826 23.3868C128.952 23.3868 126.917 22.9638 125.075 21.3695L126.981 18.3109C127.434 18.7014 128.048 19.1244 128.532 19.3521C129.146 19.6775 129.824 19.8077 130.406 19.8077C130.697 19.8077 131.407 19.8077 131.827 19.4823C132.118 19.2545 132.312 18.9291 132.312 18.5712C132.312 18.3109 132.215 18.0181 131.795 17.7578C131.472 17.5625 131.084 17.4324 130.406 17.2372L129.275 16.8792C128.467 16.6189 127.627 16.196 127.014 15.5777C126.368 14.8944 126.012 14.081 126.012 13.0072C126.012 11.6406 126.561 10.5018 127.369 9.75345C128.629 8.58208 130.309 8.32178 131.601 8.32178C133.669 8.32178 135.123 8.87492 136.254 9.52568L134.477 12.3565Z" fill="#212B35"/>
<path d="M142.812 30.0898H138.289V8.7449H142.812V10.4043C144.298 8.4846 146.108 8.25684 147.174 8.25684C149.694 8.25684 151.244 9.36313 152.117 10.2416C153.377 11.5106 154.217 13.4304 154.217 15.7406C154.217 18.1809 153.377 20.003 151.988 21.4022C150.598 22.8013 149.112 23.2894 147.238 23.2894C144.46 23.2894 143.264 21.8577 142.78 21.2069V30.0898H142.812ZM143.588 13.2351C142.877 13.951 142.521 14.9596 142.521 15.8382C142.521 16.7167 142.877 17.6278 143.523 18.3436C144.169 18.9943 145.138 19.4173 146.108 19.4173C146.948 19.4173 147.852 19.0594 148.531 18.4412C149.241 17.7579 149.629 16.6842 149.629 15.7406C149.629 14.6993 149.177 13.7883 148.563 13.1701C147.917 12.5518 147.012 12.1939 146.108 12.1939C144.815 12.1939 144.008 12.7796 143.588 13.2351Z" fill="#212B35"/>
<path d="M170.791 16.5862H160.323C160.323 17.3346 160.614 18.3433 161.163 18.994C161.842 19.7424 162.811 19.8726 163.489 19.8726C164.135 19.8726 164.846 19.7424 165.298 19.4496C165.363 19.417 165.88 19.0591 166.268 18.2782L170.532 18.7337C169.918 20.7185 168.658 21.7598 167.818 22.2804C166.462 23.0938 164.975 23.3216 163.392 23.3216C161.292 23.3216 159.451 22.9311 157.803 21.3042C156.575 20.0678 155.703 18.2131 155.703 15.8704C155.703 13.853 156.414 11.7706 157.835 10.3064C159.515 8.61444 161.648 8.28906 163.198 8.28906C164.782 8.28906 167.011 8.5819 168.755 10.404C170.403 12.1611 170.726 14.3737 170.726 16.1307V16.5862H170.791ZM166.591 13.853C166.558 13.7229 166.332 12.8444 165.686 12.1936C165.169 11.7055 164.458 11.4127 163.554 11.4127C162.391 11.4127 161.712 11.9008 161.26 12.3238C160.905 12.7142 160.614 13.2023 160.485 13.853H166.591Z" fill="#212B35"/>
<path d="M191.144 12.4215V22.8662H186.621V4.18945H191.144V8.74476H193.923V12.4215H191.144Z" fill="#212B35"/>
<path d="M17.3291 15.7731C17.3291 11.5432 20.4629 8.35449 24.7276 8.35449C27.0537 8.35449 28.9922 9.33063 30.2199 10.925C29.8968 11.2504 27.9583 13.3003 27.6675 13.5606C26.8922 12.7796 26.0522 12.3567 24.8891 12.3567C22.6276 12.3567 21.4645 13.6907 21.4645 15.7731C21.4645 17.8556 22.6276 19.3198 24.986 19.3198C26.0845 19.3198 26.9245 18.8968 27.6999 18.1159C28.1522 18.5714 29.9291 20.4261 30.2522 20.7514C29.0245 22.3133 27.1183 23.3219 24.8245 23.3219C20.5276 23.3219 17.3291 20.0681 17.3291 15.7731Z" fill="#212B35"/>
<path d="M172.277 15.7404C172.277 11.5105 175.411 8.32178 179.676 8.32178C182.002 8.32178 183.94 9.29792 185.168 10.8923C184.845 11.2177 182.907 13.2675 182.616 13.5278C181.84 12.7469 181 12.3239 179.837 12.3239C177.576 12.3239 176.413 13.658 176.413 15.7404C176.413 17.8228 177.608 19.2871 179.934 19.2871C181.033 19.2871 181.873 18.8641 182.648 18.0832C183.1 18.5387 184.877 20.3933 185.2 20.7187C183.973 22.2805 182.067 23.2892 179.773 23.2892C175.476 23.2567 172.277 20.0029 172.277 15.7404Z" fill="#212B35"/>
<path d="M51.7692 8.74463L54.1277 13.7555L51.7692 18.4084L46.8262 8.74463H51.7692Z" fill="#212B35"/>
<path d="M55.5177 16.3585L61.3331 4.15674H66.2762L56.9069 22.8986H54.0962L53.127 20.9788L55.5177 16.3585Z" fill="#3EA2DA"/>
</svg>
