<svg width="58" height="60" viewBox="0 0 58 60" fill="none" xmlns="http://www.w3.org/2000/svg">
<path d="M4.79173 59.5662C4.11173 59.5662 3.44413 59.4411 2.85346 59.1185C1.8648 58.5785 1.2612 57.591 1.05906 56.1833C0.974396 55.7637 0.00346279 50.7321 0.686129 44.2517C1.0972 40.3503 2.02813 36.7413 3.45346 33.5246C5.24213 29.4879 7.81613 26.0643 11.1041 23.3489C12.6529 22.0703 15.1661 21.5957 17.0805 22.2195C18.5591 22.7017 19.5811 23.7791 19.9583 25.2537C19.9607 25.2631 19.9628 25.2726 19.9648 25.2821C19.9849 25.3781 21.9768 35.0422 21.7757 48.3242C21.7444 50.4091 21.0867 53.2194 19.3344 54.8543C18.3716 55.7526 17.2144 56.1733 15.8937 56.0998C13.4233 55.9666 12.3753 56.5598 10.7888 57.4591C10.1867 57.8005 9.50426 58.1873 8.66413 58.5741C7.7272 59.0054 6.23173 59.5661 4.79173 59.5662ZM15.2607 23.2781C14.0675 23.2781 12.8036 23.6749 11.9531 24.3769C4.86253 30.2327 2.63346 38.493 2.012 44.3914C1.33533 50.8141 2.35866 55.8847 2.36906 55.9351C2.37186 55.949 2.3744 55.9631 2.3764 55.9771C2.5156 56.9693 2.8808 57.6141 3.49253 57.9483C4.91106 58.7233 7.38293 57.6961 8.10666 57.3627C8.8956 56.9994 9.52386 56.6433 10.1313 56.2989C11.7932 55.3569 13.1057 54.6133 15.9661 54.7683C16.9099 54.8181 17.7375 54.5206 18.4248 53.8793C19.8725 52.5285 20.4165 50.0317 20.4425 48.3039C20.6377 35.4123 18.7485 25.9887 18.6628 25.5694C18.3263 24.2769 17.3927 23.7237 16.6672 23.4871C16.2332 23.3457 15.7529 23.2781 15.2607 23.2781Z" fill="#698CF0"/>
<path d="M10.3595 46.9851C10.1999 46.9851 10.0398 46.9282 9.91221 46.8126C7.33181 44.4758 6.47354 40.8002 7.43021 36.1835C8.10061 32.9487 9.41861 30.3554 9.59421 30.0187C10.4955 27.762 10.7949 25.8484 10.4837 24.3311C10.4097 23.9704 10.6421 23.618 11.0029 23.5442C11.3635 23.4696 11.7159 23.7026 11.7898 24.0634C12.1558 25.8483 11.8291 28.0296 10.819 30.5467C10.8102 30.5688 10.8001 30.5904 10.7889 30.6115C10.7345 30.7139 5.40408 40.9311 10.8071 45.8243C11.0801 46.0715 11.1009 46.4931 10.8538 46.766C10.7223 46.9112 10.5413 46.9851 10.3595 46.9851Z" fill="#698CF0"/>
<path d="M4.4258 48.1568C4.1622 48.1568 3.9126 47.9995 3.80767 47.7401C3.6698 47.3995 3.83353 47.0116 4.17367 46.8728C4.2866 46.826 6.84753 45.7349 7.52967 42.7541C7.6118 42.3953 7.96873 42.1707 8.32833 42.2529C8.68713 42.3351 8.91167 42.6927 8.8294 43.0515C7.98793 46.7287 4.81073 48.0533 4.6758 48.108C4.59393 48.1412 4.50913 48.1568 4.4258 48.1568Z" fill="#698CF0"/>
<path d="M13.0963 43.779C12.9536 43.779 12.8099 43.7334 12.6883 43.6393C12.3974 43.4137 12.3443 42.9949 12.5699 42.7038C13.9124 40.972 13.1316 38.4681 11.6664 36.8901C10.2859 35.4028 8.90523 32.324 8.84697 32.1936C8.6971 31.8573 8.84817 31.4632 9.18443 31.3132C9.52043 31.163 9.91483 31.3142 10.0648 31.6505C10.0782 31.6804 11.414 34.658 12.6436 35.9828C14.4915 37.973 15.4215 41.2013 13.6238 43.5205C13.4922 43.6902 13.2952 43.779 13.0963 43.779Z" fill="#698CF0"/>
<path d="M12.8345 37.7315C12.7547 37.7315 12.6749 37.7275 12.5947 37.7188C12.2286 37.6796 11.9637 37.3511 12.0029 36.985C12.0421 36.6188 12.3707 36.3531 12.7367 36.3931C13.6475 36.4908 14.9042 35.241 15.2723 34.7956C15.5066 34.512 15.9266 34.4715 16.2106 34.7054C16.4945 34.9394 16.5355 35.3586 16.3019 35.6428C16.1193 35.865 14.5341 37.7315 12.8345 37.7315Z" fill="#698CF0"/>
<path d="M4.79197 53.9956C4.11197 53.9956 3.44437 53.8705 2.8537 53.548C1.8649 53.0078 1.26117 52.0204 1.05917 50.6122C1.0161 50.3969 0.694105 48.7273 0.534505 46.1465C0.511705 45.779 0.791171 45.4626 1.15877 45.44C1.5269 45.4173 1.8425 45.6968 1.8653 46.0642C2.02664 48.6724 2.3661 50.3485 2.36957 50.365C2.37237 50.3788 2.3749 50.3928 2.37677 50.4066C2.51597 51.3988 2.88117 52.0436 3.49304 52.3778C4.91157 53.1528 7.38344 52.1256 8.10717 51.7922C8.89611 51.4289 9.52424 51.0728 10.1318 50.7284C11.7937 49.7862 13.1069 49.0408 15.9668 49.1978C19.1448 49.3712 20.2618 45.5444 20.4208 43.2562C20.4462 42.889 20.7653 42.6134 21.132 42.6373C21.4993 42.6628 21.7764 42.9813 21.7509 43.3486C21.4928 47.067 19.5821 50.7313 15.8945 50.529C13.425 50.3962 12.3761 50.9889 10.7896 51.8882C10.1874 52.2297 9.50504 52.6165 8.66504 53.0033C7.72744 53.4348 6.23197 53.9954 4.79197 53.9956Z" fill="#698CF0"/>
<path d="M46.3349 59.5663C44.8947 59.5663 43.3995 59.0056 42.4623 58.5741C41.6222 58.1873 40.9397 57.8004 40.3375 57.4591C38.751 56.5599 37.7025 55.9665 35.2327 56.0999C33.911 56.1727 32.7549 55.7527 31.7921 54.8544C30.0397 53.2196 29.3821 50.4092 29.3507 48.3241C29.1494 35.0423 31.1413 25.3781 31.1614 25.2821C31.1634 25.2725 31.1655 25.2631 31.1681 25.2537C31.5453 23.7792 32.5673 22.7016 34.0459 22.2196C35.9601 21.5956 38.4735 22.0704 40.0221 23.3488C43.3102 26.0644 45.8843 29.488 47.673 33.5247C49.0982 36.7413 50.0294 40.3504 50.4403 44.2517C51.1231 50.7325 50.1521 55.7644 50.0675 56.1833C49.8653 57.5912 49.2617 58.5785 48.2731 59.1185C47.6826 59.4412 47.0147 59.5661 46.3349 59.5663ZM35.8929 54.7477C38.2585 54.7477 39.4819 55.4413 40.9951 56.2991C41.6027 56.6435 42.2309 56.9996 43.0199 57.3629C43.7439 57.6963 46.2157 58.7232 47.6341 57.9485C48.2458 57.6143 48.6109 56.9696 48.7502 55.9773C48.7522 55.9635 48.7546 55.9493 48.7574 55.9356C48.7678 55.8848 49.7939 50.7803 49.1103 44.3519C48.4845 38.4664 46.2523 30.2235 39.1734 24.3769C37.9721 23.3853 35.9455 23.0029 34.4594 23.4873C33.7341 23.7237 32.8003 24.2769 32.4637 25.5696C32.3777 25.99 30.4886 35.4133 30.6839 48.304C30.7099 50.0319 31.2538 52.5288 32.7017 53.8795C33.389 54.5207 34.2178 54.8187 35.1603 54.7685C35.4165 54.7545 35.6602 54.7477 35.8929 54.7477Z" fill="#698CF0"/>
<path d="M40.7671 46.9851C40.5854 46.9851 40.4043 46.9112 40.2727 46.7659C40.0255 46.4929 40.0464 46.0713 40.3194 45.8241C45.7223 40.9311 40.392 30.7137 40.3376 30.6109C40.3266 30.5901 40.3164 30.5684 40.3075 30.5465C39.2972 28.0293 38.9707 25.848 39.3366 24.0632C39.4106 23.7025 39.7628 23.4696 40.1235 23.544C40.4843 23.618 40.7167 23.9703 40.6428 24.3309C40.3316 25.8481 40.631 27.7617 41.5324 30.0185C41.708 30.3552 43.0262 32.9487 43.6964 36.1833C44.6531 40.8 43.7948 44.4755 41.2144 46.8124C41.0867 46.928 40.9266 46.9851 40.7671 46.9851Z" fill="#698CF0"/>
<path d="M46.7002 48.1568C46.6169 48.1568 46.5322 48.1412 46.4503 48.108C46.3154 48.0534 43.1383 46.7286 42.2967 43.0516C42.2146 42.6928 42.4389 42.3352 42.7979 42.253C43.1558 42.1709 43.5142 42.395 43.5965 42.7542C44.2847 45.7613 46.9241 46.8614 46.9506 46.8721C47.2919 47.0102 47.4566 47.3989 47.3185 47.7402C47.2135 47.9994 46.9638 48.1568 46.7002 48.1568Z" fill="#698CF0"/>
<path d="M38.0303 43.7791C37.8312 43.7791 37.6342 43.6904 37.5028 43.5208C35.705 41.2015 36.6351 37.9733 38.4831 35.9829C39.7147 34.6561 41.0484 31.6807 41.0619 31.6508C41.2116 31.3147 41.6052 31.1635 41.9423 31.3135C42.2784 31.4633 42.4296 31.8575 42.2796 32.1939C42.2215 32.3243 40.8409 35.4029 39.4601 36.8903C37.9949 38.4684 37.2141 40.9721 38.5568 42.7041C38.7822 42.9952 38.7293 43.4139 38.4383 43.6396C38.3167 43.7335 38.1728 43.7791 38.0303 43.7791Z" fill="#698CF0"/>
<path d="M38.2919 37.7314C36.5922 37.7314 35.0071 35.865 34.8244 35.6427C34.5907 35.3582 34.6319 34.9382 34.9162 34.7043C35.2007 34.4706 35.6204 34.5118 35.8542 34.7958C36.2226 35.2415 37.4782 36.4901 38.3896 36.393C38.7552 36.3535 39.0843 36.6189 39.1235 36.9849C39.1627 37.351 38.8978 37.6795 38.5316 37.7187C38.4516 37.7274 38.3714 37.7314 38.2919 37.7314Z" fill="#698CF0"/>
<path d="M46.3348 53.9955C44.8947 53.9955 43.3995 53.4347 42.4623 53.0034C41.6221 52.6166 40.9396 52.2296 40.3375 51.8883C38.7511 50.989 37.7033 50.396 35.2327 50.5291C31.5432 50.7328 29.6343 47.0671 29.3761 43.3487C29.3507 42.9814 29.6279 42.6628 29.9951 42.6374C30.364 42.6139 30.6809 42.8891 30.7064 43.2563C30.8652 45.5443 31.9811 49.3678 35.1603 49.1979C38.0199 49.0426 39.3331 49.7863 40.9949 50.7284C41.6025 51.0728 42.2308 51.429 43.0199 51.7923C43.7437 52.1256 46.2159 53.1524 47.6339 52.3779C48.2457 52.0436 48.6109 51.3988 48.7503 50.4067C48.7523 50.3928 48.7545 50.3788 48.7575 50.3651C48.7608 50.3486 49.1003 48.6724 49.2616 46.0643C49.2844 45.6966 49.6009 45.4166 49.9681 45.44C50.3356 45.4627 50.6152 45.7791 50.5924 46.1466C50.4328 48.7275 50.1109 50.3972 50.0677 50.6124C49.8655 52.0203 49.2617 53.0079 48.2731 53.548C47.6824 53.8703 47.0145 53.9954 46.3348 53.9955Z" fill="#698CF0"/>
<path d="M25.5636 28.9789C23.8164 28.9789 22.395 27.5574 22.395 25.8104V11.8886C22.395 10.1414 23.8164 8.72009 25.5636 8.72009C27.3108 8.72009 28.7321 10.1414 28.7321 11.8886V25.8105C28.732 27.5576 27.3106 28.9789 25.5636 28.9789ZM25.5636 10.0534C24.5517 10.0534 23.7284 10.8766 23.7284 11.8886V25.8105C23.7284 26.8224 24.5516 27.6457 25.5636 27.6457C26.5756 27.6457 27.3988 26.8224 27.3988 25.8105V11.8886C27.3986 10.8766 26.5754 10.0534 25.5636 10.0534Z" fill="#698CF0"/>
<path d="M20.2686 32.3706C20.098 32.3706 19.9274 32.3056 19.7972 32.1753C19.5368 31.915 19.5368 31.4929 19.7972 31.2326L23.6496 27.3801C23.91 27.1198 24.332 27.1198 24.5924 27.3801C24.8528 27.6405 24.8528 28.0626 24.5924 28.3229L20.74 32.1753C20.6098 32.3056 20.4392 32.3706 20.2686 32.3706ZM19.3401 26.2226C19.1694 26.2226 18.9989 26.1576 18.8686 26.0274C18.6082 25.767 18.6082 25.3449 18.8686 25.0846L22.5898 21.3633C22.8502 21.103 23.2722 21.103 23.5326 21.3633C23.793 21.6237 23.793 22.0458 23.5326 22.3061L19.8114 26.0274C19.6813 26.1576 19.5108 26.2226 19.3401 26.2226Z" fill="#698CF0"/>
<path d="M30.8579 32.3706C30.6874 32.3706 30.5166 32.3055 30.3866 32.1753L26.5342 28.3229C26.2738 28.0625 26.2738 27.6403 26.5342 27.3801C26.7947 27.1198 27.2167 27.1199 27.477 27.3801L31.3292 31.2326C31.5896 31.4929 31.5896 31.915 31.3292 32.1753C31.1991 32.3055 31.0284 32.3706 30.8579 32.3706ZM31.7863 26.2226C31.6158 26.2226 31.445 26.1575 31.315 26.0274L27.5936 22.3062C27.3332 22.0458 27.3332 21.6237 27.5936 21.3634C27.854 21.1031 28.276 21.1031 28.5364 21.3634L32.2576 25.0846C32.518 25.345 32.518 25.7671 32.2576 26.0274C32.1276 26.1575 31.957 26.2226 31.7863 26.2226Z" fill="#698CF0"/>
<path d="M37.8108 20.4237C37.5987 20.4237 37.3932 20.3221 37.2656 20.1408C37.0906 19.8921 37.1059 19.5565 37.303 19.3248L40.4004 15.6852C39.2442 14.0764 38.613 12.1272 38.613 10.137C38.613 4.89584 42.8768 0.631836 48.118 0.631836C53.3592 0.631836 57.6232 4.89584 57.6232 10.137C57.6232 15.3782 53.3592 19.6421 48.118 19.6421C46.4427 19.6421 44.807 19.2033 43.3663 18.3701L38.0463 20.3805C37.9694 20.4097 37.8896 20.4237 37.8108 20.4237ZM43.4331 16.9657C43.5568 16.9657 43.6796 17.0001 43.787 17.0674C45.0834 17.8796 46.581 18.3089 48.118 18.3089C52.624 18.3089 56.2899 14.643 56.2899 10.1372C56.2899 5.63117 52.624 1.9653 48.118 1.9653C43.6122 1.9653 39.9463 5.63117 39.9463 10.1372C39.9463 12.0085 40.5954 13.8376 41.7739 15.2874C41.9767 15.5368 41.9726 15.8953 41.7643 16.1401L39.9951 18.2189L43.1974 17.0088C43.2738 16.9798 43.3535 16.9657 43.4331 16.9657Z" fill="#698CF0"/>
<path fill-rule="evenodd" clip-rule="evenodd" d="M42.9222 7.77707C43.2748 7.77707 43.5622 7.4896 43.5622 7.13707C43.5622 6.78454 43.2748 6.49707 42.9222 6.49707C42.5697 6.49707 42.2822 6.78454 42.2822 7.13707C42.2822 7.4896 42.5697 7.77707 42.9222 7.77707Z" fill="#698CF0"/>
<path fill-rule="evenodd" clip-rule="evenodd" d="M46.3861 7.77707C46.7386 7.77707 47.0261 7.4896 47.0261 7.13707C47.0261 6.78454 46.7386 6.49707 46.3861 6.49707C46.0336 6.49707 45.7461 6.78454 45.7461 7.13707C45.7461 7.4896 46.0336 7.77707 46.3861 7.77707Z" fill="#698CF0"/>
<path fill-rule="evenodd" clip-rule="evenodd" d="M49.8505 7.77707C50.203 7.77707 50.4905 7.4896 50.4905 7.13707C50.4905 6.78454 50.203 6.49707 49.8505 6.49707C49.4979 6.49707 49.2104 6.78454 49.2104 7.13707C49.2104 7.4896 49.4979 7.77707 49.8505 7.77707Z" fill="#698CF0"/>
<path fill-rule="evenodd" clip-rule="evenodd" d="M53.3143 7.77707C53.6668 7.77707 53.9543 7.4896 53.9543 7.13707C53.9543 6.78454 53.6668 6.49707 53.3143 6.49707C52.9618 6.49707 52.6743 6.78454 52.6743 7.13707C52.6743 7.4896 52.9618 7.77707 53.3143 7.77707Z" fill="#698CF0"/>
<path fill-rule="evenodd" clip-rule="evenodd" d="M42.9222 10.577C43.2748 10.577 43.5622 10.2895 43.5622 9.937C43.5622 9.58446 43.2748 9.297 42.9222 9.297C42.5697 9.297 42.2822 9.58446 42.2822 9.937C42.2822 10.2895 42.5697 10.577 42.9222 10.577Z" fill="#698CF0"/>
<path fill-rule="evenodd" clip-rule="evenodd" d="M46.3861 10.577C46.7386 10.577 47.0261 10.2895 47.0261 9.937C47.0261 9.58446 46.7386 9.297 46.3861 9.297C46.0336 9.297 45.7461 9.58446 45.7461 9.937C45.7461 10.2895 46.0336 10.577 46.3861 10.577Z" fill="#698CF0"/>
<path fill-rule="evenodd" clip-rule="evenodd" d="M49.8505 10.577C50.203 10.577 50.4905 10.2895 50.4905 9.937C50.4905 9.58446 50.203 9.297 49.8505 9.297C49.4979 9.297 49.2104 9.58446 49.2104 9.937C49.2104 10.2895 49.4979 10.577 49.8505 10.577Z" fill="#698CF0"/>
<path fill-rule="evenodd" clip-rule="evenodd" d="M53.3143 10.577C53.6668 10.577 53.9543 10.2895 53.9543 9.937C53.9543 9.58446 53.6668 9.297 53.3143 9.297C52.9618 9.297 52.6743 9.58446 52.6743 9.937C52.6743 10.2895 52.9618 10.577 53.3143 10.577Z" fill="#698CF0"/>
<path fill-rule="evenodd" clip-rule="evenodd" d="M44.6542 13.377C45.0067 13.377 45.2942 13.0896 45.2942 12.737C45.2942 12.3845 45.0067 12.097 44.6542 12.097C44.3016 12.097 44.0142 12.3845 44.0142 12.737C44.0142 13.0896 44.3016 13.377 44.6542 13.377Z" fill="#698CF0"/>
<path fill-rule="evenodd" clip-rule="evenodd" d="M48.118 13.377C48.4706 13.377 48.758 13.0896 48.758 12.737C48.758 12.3845 48.4706 12.097 48.118 12.097C47.7655 12.097 47.478 12.3845 47.478 12.737C47.478 13.0896 47.7655 13.377 48.118 13.377Z" fill="#698CF0"/>
<path fill-rule="evenodd" clip-rule="evenodd" d="M51.5824 13.377C51.9349 13.377 52.2224 13.0896 52.2224 12.737C52.2224 12.3845 51.9349 12.097 51.5824 12.097C51.2298 12.097 50.9424 12.3845 50.9424 12.737C50.9424 13.0896 51.2298 13.377 51.5824 13.377Z" fill="#698CF0"/>
<path fill-rule="evenodd" clip-rule="evenodd" d="M46.3861 16.1771C46.7386 16.1771 47.0261 15.8896 47.0261 15.5371C47.0261 15.1846 46.7386 14.8971 46.3861 14.8971C46.0336 14.8971 45.7461 15.1846 45.7461 15.5371C45.7461 15.8896 46.0336 16.1771 46.3861 16.1771Z" fill="#698CF0"/>
<path fill-rule="evenodd" clip-rule="evenodd" d="M49.8505 16.1771C50.203 16.1771 50.4905 15.8896 50.4905 15.5371C50.4905 15.1846 50.203 14.8971 49.8505 14.8971C49.4979 14.8971 49.2104 15.1846 49.2104 15.5371C49.2104 15.8896 49.4979 16.1771 49.8505 16.1771Z" fill="#698CF0"/>
</svg>
