<svg width="48" height="58" viewBox="0 0 48 58" fill="none" xmlns="http://www.w3.org/2000/svg">
<path d="M47.5091 14.0008C46.4147 10.1739 43.9144 8.70111 42.01 8.1392C40.9906 7.84527 39.9292 7.72388 38.8697 7.78007C37.9543 5.42479 35.3962 2.01592 28.2545 1.15946C24.1965 0.675714 20.6845 1.76669 17.5951 2.73191C15.0314 3.53287 12.8177 4.22393 10.7355 3.93844C7.82959 3.53966 6.25488 0.491053 6.24015 0.46273C6.17536 0.33757 6.08068 0.230332 5.96451 0.150529C5.84835 0.0707257 5.71428 0.0208231 5.57421 0.00524689C5.43414 -0.0103293 5.29238 0.00890244 5.16152 0.0612364C5.03066 0.11357 4.91474 0.197389 4.82404 0.305259C4.71075 0.435541 2.21839 3.54759 0.858917 8.79514C0.0582487 11.8739 -0.185381 15.071 0.139531 18.2355C0.52698 22.0386 1.72558 25.8644 3.69681 29.6177C3.01707 30.6022 2.76784 31.9016 2.96836 33.4899C3.21646 35.4623 3.95851 37.1242 5.12085 38.2934C6.14952 39.3322 7.44894 39.9247 8.79822 39.9746C9.09503 41.8269 9.42357 43.1115 9.80082 43.8853C10.7003 45.7376 12.2592 47.7371 14.1727 49.4535V57.1458C14.1722 57.2575 14.1938 57.3683 14.2361 57.4716C14.2785 57.575 14.3408 57.6691 14.4194 57.7484C14.4981 57.8277 14.5917 57.8908 14.6947 57.9339C14.7978 57.9771 14.9083 57.9996 15.0201 58H32.0134C32.2394 58 32.4561 57.9102 32.6158 57.7505C32.7756 57.5907 32.8654 57.374 32.8654 57.1481V49.4557C34.7777 47.7428 36.3377 45.7399 37.2372 43.8876C37.6133 43.1127 37.943 41.8291 38.2398 39.9768C39.5891 39.927 40.8885 39.3345 41.916 38.2956C43.0738 37.1265 43.817 35.4634 44.0685 33.4922C44.1965 32.4726 44.141 31.5742 43.9054 30.8004C44.8575 29.021 45.6766 27.1735 46.3558 25.273C47.96 20.7415 48.3508 16.9486 47.5091 14.0008ZM9.98549 38.3477C9.68074 38.1144 9.31821 38.2526 8.97948 38.2775C7.1408 38.2775 5.0914 36.7322 4.6575 33.2792C4.4955 31.9922 4.69828 31.0134 5.25907 30.3801C5.96712 29.5769 7.16006 29.3809 8.0811 29.3605L13.3377 38.5517C12.3075 40.0471 11.5768 41.4273 11.1456 42.6924C10.919 42.058 10.6448 40.9307 10.3525 38.9323C10.3357 38.8146 10.2944 38.7017 10.2311 38.601C10.1679 38.5003 10.0842 38.414 9.98549 38.3477ZM32.5855 37.0562C32.3204 36.7171 32.0417 36.3731 31.7495 36.0242C31.2249 35.3988 30.7842 34.676 30.3571 33.9782C29.0679 31.8642 27.6008 29.467 23.5167 29.467C19.4327 29.467 17.9656 31.8642 16.6695 33.9827C16.2436 34.6806 15.8017 35.4034 15.2784 36.0287C14.9846 36.3776 14.7059 36.7217 14.4423 37.0608L9.4281 28.2945C9.22192 24.5367 9.11996 21.1187 9.07917 19.51C11.3583 19.7118 13.6477 19.7723 15.9343 19.6913C20.0433 19.5621 26.1938 18.9458 32.6127 16.7854C33.0104 18.5527 34.1138 22.3502 36.7897 25.8916C37.3161 26.5847 37.5992 27.4321 37.5952 28.3024L32.5855 37.0562ZM15.8709 50.8311C17.4841 51.9991 19.2582 52.9156 21.0516 53.3801V56.3007H15.8709V50.8311ZM27.2745 42.3956C27.2451 41.4177 26.836 40.4898 26.134 39.8086C25.4319 39.1273 24.4922 38.7463 23.5139 38.7463C22.5357 38.7463 21.5959 39.1273 20.8938 39.8086C20.1918 40.4898 19.7827 41.4177 19.7533 42.3956C19.474 41.7687 19.3559 41.082 19.4096 40.3979C19.4633 39.7138 19.6872 39.0539 20.0609 38.4784C20.4346 37.9028 20.9462 37.4298 21.5493 37.1023C22.1523 36.7748 22.8277 36.6033 23.5139 36.6033C24.2001 36.6033 24.8755 36.7748 25.4785 37.1023C26.0816 37.4298 26.5932 37.9028 26.9669 38.4784C27.3406 39.0539 27.5645 39.7138 27.6182 40.3979C27.6719 41.082 27.5538 41.7687 27.2745 42.3956ZM25.5752 47.9241C25.5752 47.9614 25.5678 47.9983 25.5535 48.0327C25.5392 48.0672 25.5183 48.0984 25.4918 48.1247C25.4654 48.1511 25.4341 48.1719 25.3996 48.1861C25.3651 48.2002 25.3281 48.2074 25.2908 48.2073H21.737C21.6617 48.2073 21.5896 48.1775 21.5363 48.1244C21.483 48.0713 21.4529 47.9993 21.4526 47.9241V42.5021C21.4526 41.9555 21.6697 41.4314 22.0562 41.0449C22.4426 40.6584 22.9668 40.4413 23.5133 40.4413C24.0599 40.4413 24.584 40.6584 24.9705 41.0449C25.357 41.4314 25.5741 41.9555 25.5741 42.5021L25.5752 47.9241ZM22.7554 49.91H24.2735V56.3007H22.7554V49.91ZM31.157 56.3007H25.9751V53.3801C27.7685 52.9156 29.5426 51.9991 31.157 50.8311V56.3007ZM25.9751 51.6116V49.7865C26.3564 49.6463 26.6855 49.3926 26.9182 49.0596C27.151 48.7266 27.2761 48.3303 27.2768 47.9241V45.1609C28.1858 44.3902 28.8364 43.359 29.1404 42.2067C29.4445 41.0543 29.3874 39.8364 28.9769 38.7176C28.5665 37.5987 27.8224 36.6328 26.8453 35.9505C25.8682 35.2682 24.7051 34.9023 23.5133 34.9023C22.3216 34.9023 21.1585 35.2682 20.1814 35.9505C19.2043 36.6328 18.4602 37.5987 18.0497 38.7176C17.6393 39.8364 17.5822 41.0543 17.8863 42.2067C18.1903 43.359 18.8408 44.3902 19.7499 45.1609V47.9241C19.7509 48.3302 19.8762 48.7264 20.1088 49.0593C20.3415 49.3922 20.6705 49.646 21.0516 49.7865V51.6116C17.688 50.583 14.3618 47.7349 12.4008 44.94C12.5141 42.9314 13.9155 40.302 16.5834 37.1174C17.1884 36.3946 17.6631 35.6175 18.123 34.8664C19.3851 32.8011 20.382 31.1697 23.5133 31.1697C26.6446 31.1697 27.6427 32.8011 28.9048 34.8664C29.3636 35.6175 29.8383 36.3946 30.4444 37.1174C33.1123 40.302 34.5228 42.9314 34.627 44.94C32.666 47.7349 29.3398 50.583 25.9751 51.6116ZM42.3703 33.2792C41.9353 36.7322 39.887 38.2775 38.0483 38.2775C37.4819 38.1268 36.758 38.2412 36.6685 38.9368C36.383 40.9353 36.102 42.0625 35.8811 42.6969C35.4521 41.4349 34.7214 40.0546 33.689 38.5562L38.9456 29.365C39.8678 29.3809 41.0596 29.5769 41.7676 30.3846C42.3295 31.0168 42.5323 31.9922 42.3703 33.2792ZM42.8722 29.0705C42.0282 28.2288 40.7933 27.7518 39.2639 27.6725C39.152 26.6514 38.7656 25.6797 38.1458 24.8607C34.8604 20.5036 34.1093 15.5823 34.1013 15.5336C34.0825 15.4087 34.0364 15.2896 33.9661 15.1847C33.8959 15.0798 33.8033 14.9917 33.6951 14.9267C33.5868 14.8618 33.4655 14.8216 33.3399 14.809C33.2143 14.7964 33.0874 14.8117 32.9684 14.8538C20.4659 19.3458 8.44929 17.7257 8.3258 17.7087C8.20392 17.6923 8.07994 17.7023 7.96227 17.7381C7.8446 17.7738 7.73602 17.8345 7.6439 17.916C7.55178 17.9975 7.47829 18.0978 7.42842 18.2102C7.37856 18.3227 7.35348 18.4445 7.35491 18.5675C7.35491 18.6116 7.43422 22.7682 7.69478 27.6759C6.64459 27.7382 5.73601 27.9931 4.99963 28.4259C3.26178 25.0136 2.20026 21.5504 1.8434 18.1166C1.53244 15.1626 1.74996 12.1769 2.48575 9.29928C3.11204 6.85018 4.11081 4.51182 5.44713 2.36599C6.32512 3.55326 8.00519 5.28092 10.5089 5.62418C12.9661 5.96405 15.463 5.18235 18.1072 4.35648C21.1762 3.39465 24.3539 2.40564 28.0483 2.84973C34.9363 3.67674 36.9018 7.01537 37.4615 8.93109C37.52 9.1319 37.6504 9.30412 37.8278 9.41488C38.0052 9.52564 38.2172 9.56716 38.4233 9.53152C39.483 9.39764 40.559 9.4856 41.583 9.78982C43.7252 10.4424 45.1674 12.0171 45.8675 14.4687C47.2769 19.3888 44.2566 26.2938 42.8722 29.0705Z" fill="#698CF0"/>
<path d="M18.1067 26.3458C17.9383 26.3505 17.7746 26.4025 17.6343 26.4958C17.4941 26.5892 17.383 26.7202 17.3137 26.8738C17.2888 26.9213 16.6725 28.2332 14.1812 28.112C14.0648 28.0975 13.9466 28.1072 13.8341 28.1404C13.7215 28.1736 13.6171 28.2297 13.5272 28.3052C13.4373 28.3806 13.364 28.4738 13.3118 28.5789C13.2596 28.684 13.2296 28.7987 13.2237 28.9159C13.2179 29.0331 13.2362 29.1503 13.2777 29.26C13.3192 29.3698 13.3829 29.4698 13.4648 29.5539C13.5467 29.6379 13.645 29.7042 13.7537 29.7485C13.8623 29.7928 13.979 29.8142 14.0963 29.8113C14.239 29.8181 14.3784 29.8215 14.5143 29.8215C17.7634 29.8215 18.7547 27.8299 18.8793 27.5456C18.936 27.4161 18.9597 27.2747 18.9484 27.1339C18.9372 26.9931 18.8913 26.8572 18.8148 26.7385C18.7383 26.6197 18.6336 26.5217 18.5101 26.4532C18.3865 26.3847 18.248 26.3478 18.1067 26.3458Z" fill="#698CF0"/>
<path d="M32.8349 28.112C30.3425 28.2355 29.7285 26.9213 29.7036 26.8738C29.6342 26.7203 29.523 26.5894 29.3828 26.496C29.2426 26.4027 29.0789 26.3506 28.9105 26.3458C28.7683 26.3467 28.6286 26.3831 28.5039 26.4515C28.3792 26.5199 28.2735 26.6184 28.1964 26.7379C28.1193 26.8574 28.0731 26.9942 28.0621 27.136C28.0511 27.2778 28.0756 27.4201 28.1334 27.5501C28.258 27.8344 29.2481 29.8261 32.4984 29.8261C32.6336 29.8261 32.7729 29.8227 32.9164 29.8159C33.1302 29.7892 33.3259 29.6826 33.4643 29.5176C33.6027 29.3526 33.6736 29.1413 33.6627 28.9262C33.6518 28.7111 33.56 28.5081 33.4056 28.3579C33.2512 28.2077 33.0457 28.1215 32.8303 28.1165L32.8349 28.112Z" fill="#698CF0"/>
</svg>
