<svg width="60" height="60" viewBox="0 0 60 60" fill="none" xmlns="http://www.w3.org/2000/svg">
<path d="M7.19531 16.2188H8.34517C8.93317 16.2188 9.4573 15.9435 9.798 15.5158C10.8913 16.9393 12.6093 17.8594 14.5389 17.8594H16.5549C17.319 17.8594 17.9763 17.394 18.2587 16.7318C19.4114 18.0894 21.1288 18.9531 23.0451 18.9531H25.3434C26.343 18.9531 27.1562 18.1398 27.1562 17.1402V14.5222H42.1953C42.9492 14.5222 43.5625 13.909 43.5625 13.155V12.9375H49.0586C49.7183 12.9375 50.3467 13.0919 50.9261 13.3965C51.0479 13.4605 51.1785 13.4909 51.307 13.4909C51.602 13.4909 51.8871 13.3315 52.0339 13.0522C52.2448 12.6512 52.0906 12.1552 51.6896 11.9444C50.8838 11.5208 49.9741 11.2969 49.0586 11.2969H43.5625V9.65625H49.0586C53.0843 9.65625 56.3594 12.9314 56.3594 16.957C56.3594 20.9827 53.0843 24.2578 49.0586 24.2578H20.6161C20.1629 24.2578 19.7957 24.6251 19.7957 25.0781C19.7957 25.5312 20.1629 25.8984 20.6161 25.8984H49.0586C53.9889 25.8984 58 21.8873 58 16.957C58 12.0267 53.9889 8.01562 49.0586 8.01562H43.5625V7.79808C43.5625 7.04416 42.9492 6.43089 42.1953 6.43089H27.1562V3.81289C27.1562 2.81331 26.3429 2 25.3434 2H23.0451C21.1288 2 19.4113 2.86373 18.2586 4.2213C17.9762 3.55914 17.319 3.09375 16.5548 3.09375H14.5387C12.6092 3.09375 10.8912 4.01381 9.79789 5.43733C9.4573 5.00967 8.93317 4.73438 8.34517 4.73438H7.19531C4.33067 4.73438 2 7.06505 2 9.92969V11.0234C2 13.8881 4.33067 16.2188 7.19531 16.2188ZM41.9219 8.07152V12.8817H27.1562V8.07152H41.9219ZM23.0451 3.64062H25.3434C25.4383 3.64062 25.5156 3.71795 25.5156 3.81289V17.1403C25.5156 17.2353 25.4383 17.3126 25.3434 17.3126H23.0451C20.4872 17.3125 18.4062 15.2315 18.4062 12.6737V8.27944C18.4062 5.72159 20.4872 3.64062 23.0451 3.64062ZM14.5389 4.73438H16.5549C16.671 4.73438 16.7657 4.82898 16.7657 4.94525V16.0079C16.7657 16.1241 16.6711 16.2188 16.5549 16.2188H14.5389C12.148 16.2188 10.2031 14.2737 10.2031 11.883V9.07011C10.2031 6.67939 12.148 4.73438 14.5389 4.73438ZM3.64062 9.92969C3.64062 7.96969 5.2352 6.375 7.19531 6.375H8.34517C8.46494 6.375 8.5625 6.47245 8.5625 6.59233V14.3608C8.5625 14.4807 8.46494 14.5781 8.34517 14.5781H7.19531C5.2352 14.5781 3.64062 12.9834 3.64062 11.0234V9.92969Z" fill="#698CF0"/>
<path d="M10.9414 39.0234H52.2578C55.424 39.0234 58 36.4475 58 33.2812C58 30.115 55.424 27.5391 52.2578 27.5391H7.74219C7.28981 27.5391 6.92188 27.1711 6.92188 26.7188C6.92188 26.2664 7.28981 25.8984 7.74219 25.8984H16.7879C17.2411 25.8984 17.6082 25.5312 17.6082 25.0781C17.6082 24.6251 17.2411 24.2578 16.7879 24.2578H7.74219C6.38528 24.2578 5.28125 25.3617 5.28125 26.7188C5.28125 28.0758 6.38528 29.1797 7.74219 29.1797H52.2578C54.5195 29.1797 56.3594 31.0196 56.3594 33.2812C56.3594 35.5429 54.5195 37.3828 52.2578 37.3828H10.9414C7.82039 37.3828 5.28125 39.922 5.28125 43.043C5.28125 46.164 7.82039 48.7031 10.9414 48.7031H17.5312V50.3438H10.9414C10.0987 50.3438 9.27311 50.2017 8.48747 49.9213C8.06091 49.7693 7.59147 49.9916 7.43922 50.4183C7.28686 50.845 7.50944 51.3143 7.93611 51.4666C8.89916 51.8101 9.91033 51.9844 10.9414 51.9844H17.5312V52.2019C17.5312 52.9558 18.1445 53.5691 18.8984 53.5691H32.8438V56.1871C32.8438 57.1867 33.6571 58 34.6566 58H36.9549C38.8712 58 40.5887 57.1362 41.7414 55.7787C42.0238 56.4409 42.6812 56.9062 43.4453 56.9062H45.4613C47.3908 56.9062 49.1088 55.9862 50.2021 54.5627C50.5428 54.9903 51.0668 55.2656 51.6549 55.2656H52.8047C55.6693 55.2656 58 52.935 58 50.0703V48.9766C58 46.1119 55.6693 43.7812 52.8047 43.7812H51.6548C51.0668 43.7812 50.5427 44.0565 50.202 44.4842C49.1087 43.0607 47.3907 42.1406 45.4611 42.1406H43.4451C42.681 42.1406 42.0237 42.606 41.7413 43.2682C40.5887 41.9107 38.8712 41.0469 36.9549 41.0469H34.6566C33.657 41.0469 32.8438 41.8602 32.8438 42.8598V45.4778H18.8984C18.1445 45.4778 17.5312 46.091 17.5312 46.845V47.0625H10.9414C8.72503 47.0625 6.92188 45.2593 6.92188 43.043C6.92188 40.8266 8.72503 39.0234 10.9414 39.0234ZM51.4375 45.6392C51.4375 45.5193 51.5351 45.4219 51.6548 45.4219H52.8047C54.7648 45.4219 56.3594 47.0166 56.3594 48.9766V50.0703C56.3594 52.0303 54.7648 53.625 52.8047 53.625H51.6548C51.535 53.625 51.4375 53.5275 51.4375 53.4077V45.6392ZM43.2344 43.9921C43.2344 43.8759 43.329 43.7812 43.4453 43.7812H45.4613C47.852 43.7812 49.7969 45.7263 49.7969 48.117V50.93C49.7969 53.3206 47.852 55.2656 45.4611 55.2656H43.4451C43.329 55.2656 43.2343 55.171 43.2343 55.0547V43.9921H43.2344ZM34.4844 42.8598C34.4844 42.7648 34.5617 42.6875 34.6566 42.6875H36.9549C39.5128 42.6875 41.5938 44.7685 41.5938 47.3263V51.7207C41.5938 54.2784 39.5128 56.3594 36.9549 56.3594H34.6566C34.5617 56.3594 34.4844 56.282 34.4844 56.1871V42.8598ZM19.1719 47.1184H32.8438V51.9286H19.1719V47.1184Z" fill="#698CF0"/>
<path d="M3.64062 43.043C3.64062 39.0173 6.91575 35.7422 10.9414 35.7422H41.2354C41.6886 35.7422 42.0557 35.3749 42.0557 34.9219C42.0557 34.4688 41.6886 34.1016 41.2354 34.1016H10.9414C6.01111 34.1016 2 38.1127 2 43.043C2 45.3345 2.86592 47.5139 4.4383 49.1797C4.59973 49.3506 4.81706 49.4369 5.03494 49.4369C5.23706 49.4369 5.43941 49.3628 5.59789 49.2131C5.92733 48.9022 5.9422 48.383 5.63136 48.0535C4.34762 46.6935 3.64062 44.914 3.64062 43.043Z" fill="#698CF0"/>
<path d="M7.74219 32.4608H52.2578C52.7102 32.4608 53.0781 32.8288 53.0781 33.2811C53.0781 33.7334 52.7102 34.1014 52.2578 34.1014H45.0636C44.6104 34.1014 44.2432 34.4687 44.2432 34.9218C44.2432 35.3748 44.6104 35.7421 45.0636 35.7421H52.2578C53.6147 35.7421 54.7188 34.6381 54.7188 33.2811C54.7188 31.9241 53.6147 30.8202 52.2578 30.8202H7.74219C5.48053 30.8202 3.64062 28.9803 3.64062 26.7186C3.64062 24.457 5.48053 22.6171 7.74219 22.6171H49.0586C52.1796 22.6171 54.7188 20.0779 54.7188 16.9569C54.7188 16.3984 54.6374 15.8463 54.4769 15.3158C54.3457 14.8823 53.8885 14.6368 53.4542 14.7682C53.0206 14.8993 52.7754 15.3572 52.9065 15.7909C53.0204 16.1672 53.078 16.5595 53.078 16.957C53.078 19.1734 51.2749 20.9766 49.0585 20.9766H7.74219C4.576 20.9764 2 23.5523 2 26.7186C2 29.8849 4.576 32.4608 7.74219 32.4608Z" fill="#698CF0"/>
</svg>
