<svg width="60" height="60" viewBox="0 0 60 60" fill="none" xmlns="http://www.w3.org/2000/svg">
<path fill-rule="evenodd" clip-rule="evenodd" d="M51.8922 8.69383H8.10814C7.78457 8.69383 7.52197 8.43144 7.52197 8.1079C7.52201 7.78443 7.78443 7.52197 8.10793 7.52197H51.8923C52.2158 7.52197 52.4781 7.78443 52.4781 8.1079C52.4781 8.4314 52.2156 8.69386 51.8922 8.69383Z" fill="#698CF0"/>
<path fill-rule="evenodd" clip-rule="evenodd" d="M54.8045 15.9912H5.19404C4.87047 15.9912 4.60791 15.7288 4.60791 15.4053C4.60791 15.0818 4.87034 14.8194 5.19387 14.8194L54.8045 14.8193C55.128 14.8193 55.3904 15.0818 55.3904 15.4053C55.3906 15.7288 55.1279 15.9913 54.8045 15.9912Z" fill="#698CF0"/>
<path fill-rule="evenodd" clip-rule="evenodd" d="M54.8045 23.2886H5.19404C4.87047 23.2886 4.60791 23.0261 4.60791 22.7027C4.60791 22.3792 4.87034 22.1167 5.19387 22.1167H54.8045C55.128 22.1167 55.3904 22.3792 55.3904 22.7027C55.3906 23.0261 55.1279 23.2886 54.8045 23.2886Z" fill="#698CF0"/>
<path fill-rule="evenodd" clip-rule="evenodd" d="M54.8045 30.586H5.19404C4.87047 30.586 4.60791 30.3235 4.60791 30C4.60791 29.6765 4.87034 29.4141 5.19387 29.4141H54.8045C55.128 29.4141 55.3904 29.6765 55.3904 30C55.3906 30.3235 55.1279 30.586 54.8045 30.586Z" fill="#698CF0"/>
<path fill-rule="evenodd" clip-rule="evenodd" d="M54.8045 37.8833H5.19404C4.87047 37.8833 4.60791 37.6209 4.60791 37.2974C4.60791 36.9739 4.87034 36.7115 5.19387 36.7115L54.8045 36.7114C55.128 36.7114 55.3904 36.9739 55.3904 37.2974C55.3906 37.6209 55.1279 37.8833 54.8045 37.8833Z" fill="#698CF0"/>
<path fill-rule="evenodd" clip-rule="evenodd" d="M54.8045 45.1806H5.19404C4.87047 45.1806 4.60791 44.9182 4.60791 44.5948C4.60791 44.2712 4.87034 44.0088 5.19387 44.0088H54.8045C55.128 44.0088 55.3904 44.2713 55.3904 44.5948C55.3906 44.9182 55.1279 45.1806 54.8045 45.1806Z" fill="#698CF0"/>
<path fill-rule="evenodd" clip-rule="evenodd" d="M51.8922 52.4781H8.10814C7.78457 52.4781 7.52197 52.2157 7.52197 51.8922C7.52201 51.5675 7.78443 51.3063 8.10793 51.3063H51.8923C52.2158 51.3063 52.4781 51.5675 52.4781 51.8922C52.4781 52.2157 52.2156 52.4781 51.8922 52.4781Z" fill="#698CF0"/>
<path fill-rule="evenodd" clip-rule="evenodd" d="M8.10814 52.4781C7.78457 52.4781 7.52197 52.2157 7.52197 51.8922L7.52201 8.1079C7.52201 7.78443 7.78443 7.52197 8.10793 7.52197C8.43168 7.52197 8.69386 7.78443 8.69386 8.1079L8.69397 51.8922C8.69397 52.2157 8.43143 52.4781 8.10814 52.4781Z" fill="#698CF0"/>
<path fill-rule="evenodd" clip-rule="evenodd" d="M15.4051 55.3907C15.0815 55.3907 14.8188 55.1294 14.8188 54.8047L14.8189 5.19412C14.8189 4.87058 15.0813 4.60815 15.4048 4.60815C15.7283 4.60815 15.9908 4.87062 15.9908 5.19412L15.9909 54.8047C15.9909 55.1294 15.7283 55.3907 15.4051 55.3907Z" fill="#698CF0"/>
<path fill-rule="evenodd" clip-rule="evenodd" d="M22.7027 55.3907C22.3794 55.3907 22.1167 55.1294 22.1167 54.8047L22.1168 5.19412C22.1168 4.87058 22.3792 4.60815 22.7027 4.60815C23.0262 4.60815 23.2886 4.87062 23.2886 5.19412L23.2888 54.8047C23.2888 55.1294 23.0261 55.3907 22.7027 55.3907Z" fill="#698CF0"/>
<path fill-rule="evenodd" clip-rule="evenodd" d="M29.9995 55.3907C29.6763 55.3907 29.4136 55.1294 29.4136 54.8047L29.4137 5.19412C29.4137 4.87058 29.676 4.60815 29.9995 4.60815C30.3231 4.60815 30.5855 4.87062 30.5855 5.19412L30.5857 54.8047C30.5857 55.1294 30.323 55.3907 29.9995 55.3907Z" fill="#698CF0"/>
<path fill-rule="evenodd" clip-rule="evenodd" d="M37.2974 55.3907C36.9738 55.3907 36.7114 55.1294 36.7114 54.8047L36.7116 5.19412C36.7116 4.87058 36.9739 4.60815 37.2974 4.60815C37.621 4.60815 37.8833 4.87062 37.8833 5.19412L37.8835 54.8047C37.8835 55.1294 37.6209 55.3907 37.2974 55.3907Z" fill="#698CF0"/>
<path fill-rule="evenodd" clip-rule="evenodd" d="M44.5948 55.3907C44.2713 55.3907 44.0088 55.1294 44.0088 54.8047L44.009 5.19412C44.009 4.87058 44.2712 4.60815 44.5948 4.60815C44.9184 4.60815 45.1807 4.87062 45.1807 5.19412V54.8047C45.1807 55.1294 44.9182 55.3907 44.5948 55.3907Z" fill="#698CF0"/>
<path fill-rule="evenodd" clip-rule="evenodd" d="M51.8922 52.4781C51.5686 52.4781 51.3062 52.2157 51.3062 51.8922L51.3064 8.1079C51.3064 7.78443 51.5686 7.52197 51.8921 7.52197C52.2158 7.52197 52.478 7.78443 52.478 8.1079L52.478 51.8922C52.478 52.2157 52.2156 52.4781 51.8922 52.4781Z" fill="#698CF0"/>
<path fill-rule="evenodd" clip-rule="evenodd" d="M4.33463 7.52198H7.52177V4.33469H4.33463V7.52198ZM8.10791 8.69384H3.7488C3.42523 8.69384 3.1626 8.43145 3.1626 8.10791L3.16267 3.7488C3.16267 3.4253 3.42506 3.16284 3.74856 3.16284H8.1079C8.43144 3.16284 8.69362 3.4253 8.69362 3.7488L8.69373 8.10791C8.69373 8.43141 8.4312 8.69387 8.10791 8.69384Z" fill="#698CF0"/>
<path fill-rule="evenodd" clip-rule="evenodd" d="M4.33463 55.6653H7.52177V52.478H4.33463V55.6653ZM8.10791 56.8371H3.7488C3.42523 56.8371 3.1626 56.5747 3.1626 56.2512L3.16267 51.8921C3.16267 51.5674 3.42506 51.3062 3.74856 51.3062H8.1079C8.43144 51.3062 8.69362 51.5674 8.69362 51.8921L8.69373 56.2512C8.69373 56.5747 8.4312 56.8371 8.10791 56.8371Z" fill="#698CF0"/>
<path fill-rule="evenodd" clip-rule="evenodd" d="M52.478 55.6653H55.6655V52.478H52.478V55.6653ZM56.2513 56.8371H51.8922C51.5686 56.8371 51.3062 56.5747 51.3062 56.2512L51.3064 51.8921C51.3064 51.5674 51.5686 51.3062 51.8921 51.3062H56.2513C56.5749 51.3062 56.8371 51.5674 56.8371 51.8921V56.2512C56.8371 56.5747 56.5747 56.8371 56.2513 56.8371Z" fill="#698CF0"/>
<path fill-rule="evenodd" clip-rule="evenodd" d="M52.478 7.52198H55.6655V4.33469H52.478V7.52198ZM56.2513 8.69384H51.8922C51.5686 8.69384 51.3062 8.43145 51.3062 8.10791L51.3064 3.7488C51.3064 3.4253 51.5686 3.16284 51.8921 3.16284H56.2513C56.5749 3.16284 56.8371 3.4253 56.8371 3.7488V8.10791C56.8371 8.43141 56.5747 8.69387 56.2513 8.69384Z" fill="#698CF0"/>
</svg>
