<svg width="60" height="47" viewBox="0 0 60 47" fill="none" xmlns="http://www.w3.org/2000/svg">
<path d="M59.2685 38.9823C58.8108 38.8806 58.3022 39.1857 58.2005 39.6943L57.9971 40.8132C55.0473 37.6091 46.605 27.8954 41.9261 16.5541C41.7735 16.249 41.5192 16.0455 41.1124 15.9947H24.4311C24.2785 15.7913 24.126 15.5878 23.9734 15.3844V12.9432C24.7871 13.757 25.7534 14.469 26.7705 14.9775C27.2283 15.181 27.7368 15.0284 27.9911 14.5707C28.1946 14.113 28.042 13.5535 27.5843 13.3501C26.1094 12.5872 24.8888 11.4684 23.9734 10.1461V8.11178C24.5837 8.67121 25.2448 9.12893 25.9568 9.48493C26.4145 9.68836 26.9231 9.48493 27.1265 9.07807C27.33 8.62035 27.1774 8.11178 26.7197 7.90834C25.6008 7.34891 24.6345 6.48433 23.9734 5.41633V3.22945C24.3294 3.5346 24.7362 3.73803 25.1431 3.94146C25.6008 4.14489 26.1094 3.99232 26.3637 3.5346C26.5671 3.07688 26.4145 2.5683 25.9568 2.31402C24.6345 1.60201 24.126 0.686577 23.8717 0.381431C23.5157 -0.127144 22.7528 -0.127144 22.3968 0.381431C22.2442 0.534004 21.6848 1.60201 20.3116 2.31402C19.8539 2.51745 19.7013 3.07688 19.9048 3.5346C20.1082 3.94146 20.6168 4.14489 21.0745 3.94146C21.4814 3.73803 21.8882 3.48374 22.2442 3.22945V5.41633C21.5322 6.48433 20.6168 7.29805 19.4979 7.90834C19.0402 8.11178 18.8368 8.67121 19.0911 9.07807C19.3453 9.48493 19.8539 9.73922 20.2608 9.48493C20.9728 9.12893 21.6339 8.67121 22.2442 8.11178V10.1461C21.3288 11.5192 20.1082 12.6381 18.6333 13.3501C18.1756 13.5535 18.0231 14.113 18.2265 14.5198C18.4299 14.9267 18.9893 15.1301 19.3962 14.9267C20.4134 14.4181 21.3796 13.7061 22.1934 12.8924V15.3335C22.0408 15.537 21.8882 15.7404 21.7357 15.9438H18.9385C18.5316 15.9438 18.2265 16.1981 18.1248 16.5033C17.2093 18.6393 16.243 20.7244 15.1242 22.7587C14.107 21.945 13.2424 20.9787 12.5304 19.9107V17.4696C13.3442 18.2833 14.3105 18.9953 15.3276 19.5039C15.7853 19.7073 16.2939 19.5547 16.5482 19.097C16.7516 18.6393 16.599 18.0799 16.1413 17.8764C14.6665 17.1136 13.4459 15.9947 12.5304 14.6724V12.6381C13.1407 13.1975 13.8019 13.6552 14.5139 14.0112C14.9716 14.2147 15.4802 14.0621 15.7345 13.6044C15.9379 13.1467 15.7853 12.5872 15.3276 12.3838C14.2087 11.8244 13.2424 10.9598 12.5813 9.94265V7.75577C12.9373 8.06092 13.3442 8.26435 13.751 8.46778C14.2087 8.67121 14.7173 8.46778 14.9207 8.06092C15.1242 7.6032 14.9716 7.09462 14.5139 6.89119C13.1916 6.17919 12.683 5.26375 12.4287 4.95861C12.0727 4.45003 11.3099 4.45003 10.9539 4.95861C10.8013 5.11118 10.2419 6.17919 8.8687 6.89119C8.41098 7.14548 8.25841 7.65406 8.5127 8.11178C8.71613 8.51864 9.2247 8.67121 9.68242 8.51864C10.0893 8.31521 10.4961 8.06092 10.8521 7.80663V9.9935C10.1401 11.0615 9.2247 11.8752 8.10583 12.4347C7.64812 12.6381 7.49555 13.1975 7.69898 13.6044C7.90241 14.0112 8.46184 14.2147 8.8687 14.0112C9.5807 13.6552 10.2419 13.1975 10.8521 12.6381V14.6724C9.93671 16.0455 8.71613 17.1644 7.24126 17.8764C6.78354 18.0799 6.63097 18.6393 6.8344 19.0461C7.03783 19.453 7.59726 19.6564 8.00412 19.453C9.02127 18.9444 9.98756 18.2324 10.8013 17.4187V19.9616C9.68242 21.6399 8.15669 23.013 6.37668 23.9285C5.91896 24.1319 5.71553 24.6405 5.96982 25.0982C6.17325 25.5559 6.68182 25.7593 7.13954 25.5051H7.1904C8.56355 24.8439 9.78413 23.8776 10.8521 22.7587V29.8279C8.10583 33.744 5.20696 37.4057 2.05379 40.8132L1.7995 39.6434C1.69779 39.1857 1.24007 38.8297 0.731494 38.9314C0.222919 39.0332 -0.0822263 39.4909 0.0194888 39.9994L1.13835 45.3395C1.24007 45.7972 1.69779 46.1532 2.20636 46.0515C2.66408 45.9498 3.02008 45.4921 2.91837 44.9835L2.51151 42.9492C5.46124 39.796 8.20755 36.4903 10.6996 33.032V34.5068L6.42754 44.8309C6.17325 45.4412 6.63097 46.0515 7.24126 46.0515H52.7587C53.369 46.0515 53.8268 45.3903 53.5725 44.8309L47.8256 30.8959C50.7244 35.168 53.9793 39.1857 57.4885 42.8983L57.0816 44.9326C56.9799 45.3903 57.2851 45.8989 57.7936 46.0006C58.2514 46.1023 58.7599 45.7972 58.8616 45.2886L59.9805 39.9486C60.0822 39.5417 59.7771 39.084 59.2685 38.9823ZM24.9397 44.2715L24.6345 42.8983C28.1437 39.1349 31.3986 35.1171 34.2975 30.8959L28.754 44.2715H24.9397ZM41.9769 34.7103L45.4353 44.3223H41.9769V34.7103ZM43.401 33.4388L49.4021 39.8469L46.961 43.2543L43.401 33.4388ZM41.9769 29.2685V21.3856L47.8256 35.5748L41.9769 29.2685ZM12.5304 22.8605C13.039 23.4199 13.6493 23.9285 14.2596 24.3862C13.7002 25.3525 13.1407 26.3188 12.5304 27.2342V22.8605ZM19.5488 17.8256H39.7392C35.0095 28.5565 27.0757 37.7109 24.2277 40.8132L23.9734 39.6434C23.8717 39.1857 23.4139 38.8297 22.9054 38.9314C22.4477 39.0332 22.0917 39.4909 22.1934 39.9994L23.1088 44.2715H8.61441L19.5488 17.8256ZM40.1969 21.3856V29.6245V44.2715H30.7374L40.1969 21.3856ZM48.4359 44.2715L50.3176 41.6269L51.4364 44.2715H48.4359Z" fill="#698CF0"/>
</svg>
