<svg xmlns="http://www.w3.org/2000/svg" xmlns:xlink="http://www.w3.org/1999/xlink" width="500" zoomAndPan="magnify" viewBox="0 0 375 374.999991" height="500" preserveAspectRatio="xMidYMid meet" version="1.0"><defs><g/><clipPath id="9be6f14bf9"><path d="M 19 152 L 94 152 L 94 231 L 19 231 Z M 19 152 " clip-rule="nonzero"/></clipPath><clipPath id="393d37a5a7"><path d="M 14.988281 156.402344 L 94.34375 151.644531 L 98.875 227.257812 L 19.519531 232.015625 Z M 14.988281 156.402344 " clip-rule="nonzero"/></clipPath><clipPath id="cf5de616e7"><path d="M 14.988281 156.402344 L 94.34375 151.644531 L 98.875 227.257812 L 19.519531 232.015625 Z M 14.988281 156.402344 " clip-rule="nonzero"/></clipPath></defs><g clip-path="url(#9be6f14bf9)"><g clip-path="url(#393d37a5a7)"><g clip-path="url(#cf5de616e7)"><path fill="#ff3131" d="M 75.632812 211.863281 L 71.554688 208.246094 C 70.777344 207.558594 70.707031 206.371094 71.398438 205.59375 L 76.070312 200.328125 C 76.757812 199.550781 76.6875 198.367188 75.910156 197.675781 C 75.132812 196.988281 73.949219 197.058594 73.257812 197.835938 L 64.910156 207.25 C 64.046875 208.21875 62.566406 208.308594 61.597656 207.449219 C 60.628906 206.589844 60.539062 205.105469 61.398438 204.136719 L 75.355469 188.402344 C 76.042969 187.625 75.972656 186.4375 75.195312 185.75 C 74.417969 185.0625 73.234375 185.132812 72.542969 185.910156 L 42.652344 219.613281 C 41.792969 220.582031 40.308594 220.671875 39.339844 219.8125 C 38.371094 218.953125 38.28125 217.46875 39.140625 216.5 L 63.425781 189.117188 C 64.117188 188.339844 64.046875 187.152344 63.269531 186.464844 C 62.492188 185.777344 61.304688 185.847656 60.617188 186.625 L 51.144531 197.300781 C 50.457031 198.078125 49.273438 198.148438 48.496094 197.460938 L 47.792969 196.835938 C 47.015625 196.148438 46.941406 194.960938 47.632812 194.183594 L 62.707031 177.1875 C 63.398438 176.410156 63.328125 175.222656 62.550781 174.535156 C 61.773438 173.84375 60.585938 173.917969 59.898438 174.695312 L 24.378906 214.753906 C 23.519531 215.722656 22.035156 215.8125 21.066406 214.953125 C 20.097656 214.089844 20.007812 212.609375 20.867188 211.640625 L 50.785156 177.90625 C 51.476562 177.128906 51.402344 175.945312 50.625 175.257812 C 49.851562 174.566406 48.664062 174.636719 47.976562 175.414062 L 43.308594 180.683594 C 42.617188 181.460938 41.433594 181.53125 40.65625 180.839844 L 36.578125 177.226562 C 35.535156 176.300781 35.832031 174.597656 37.125 174.078125 L 91.292969 152.339844 C 92.730469 151.761719 94.207031 153.074219 93.804688 154.566406 L 78.695312 210.945312 C 78.332031 212.292969 76.675781 212.789062 75.632812 211.863281 Z M 44.679688 201.0625 C 43.707031 200.203125 42.226562 200.292969 41.367188 201.261719 L 20.035156 225.3125 C 19.175781 226.28125 19.265625 227.765625 20.234375 228.625 C 21.203125 229.484375 22.683594 229.394531 23.546875 228.425781 L 44.875 204.375 C 45.734375 203.40625 45.648438 201.921875 44.679688 201.0625 Z M 58.5625 210.867188 C 57.59375 210.007812 56.113281 210.097656 55.253906 211.066406 L 41.386719 226.699219 C 40.527344 227.671875 40.613281 229.152344 41.585938 230.011719 C 42.554688 230.871094 44.035156 230.785156 44.898438 229.8125 L 58.761719 214.179688 C 59.621094 213.210938 59.535156 211.726562 58.5625 210.867188 Z M 37.984375 221.25 C 37.039062 220.414062 35.59375 220.5 34.753906 221.445312 C 33.917969 222.390625 34.003906 223.835938 34.949219 224.675781 C 35.894531 225.511719 37.339844 225.425781 38.179688 224.480469 C 39.015625 223.535156 38.929688 222.089844 37.984375 221.25 Z M 37.984375 221.25 " fill-opacity="1" fill-rule="nonzero"/></g></g></g><g fill="#00285d" fill-opacity="1"><g transform="translate(109.665458, 175.799492)"><g><path d="M 5.578125 0 L 5.578125 -0.359375 L 7.046875 -0.71875 C 8.023438 -0.925781 8.515625 -1.519531 8.515625 -2.5 L 8.515625 -22.890625 L 5.46875 -22.890625 C 4.59375 -22.890625 3.960938 -22.65625 3.578125 -22.1875 C 3.191406 -21.726562 2.785156 -21.09375 2.359375 -20.28125 L 1.078125 -17.78125 L 0.71875 -17.78125 L 0.890625 -23.609375 L 21.53125 -23.609375 L 21.671875 -17.78125 L 21.3125 -17.78125 L 20.03125 -20.28125 C 19.625 -21.09375 19.226562 -21.726562 18.84375 -22.1875 C 18.46875 -22.65625 17.835938 -22.890625 16.953125 -22.890625 L 13.90625 -22.890625 L 13.90625 -2.5 C 13.90625 -1.519531 14.394531 -0.925781 15.375 -0.71875 L 16.84375 -0.359375 L 16.84375 0 Z M 5.578125 0 "/></g></g></g><g fill="#00285d" fill-opacity="1"><g transform="translate(132.085982, 175.799492)"><g><path d="M 11.984375 0.640625 C 10.523438 0.640625 9.125 0.378906 7.78125 -0.140625 C 6.4375 -0.671875 5.234375 -1.453125 4.171875 -2.484375 C 3.109375 -3.523438 2.265625 -4.816406 1.640625 -6.359375 C 1.023438 -7.910156 0.71875 -9.722656 0.71875 -11.796875 C 0.71875 -13.847656 1.023438 -15.648438 1.640625 -17.203125 C 2.265625 -18.753906 3.113281 -20.046875 4.1875 -21.078125 C 5.257812 -22.117188 6.46875 -22.90625 7.8125 -23.4375 C 9.15625 -23.976562 10.546875 -24.25 11.984375 -24.25 C 13.429688 -24.25 14.828125 -23.992188 16.171875 -23.484375 C 17.523438 -22.972656 18.734375 -22.195312 19.796875 -21.15625 C 20.859375 -20.113281 21.695312 -18.8125 22.3125 -17.25 C 22.9375 -15.695312 23.25 -13.878906 23.25 -11.796875 C 23.25 -9.773438 22.9375 -7.984375 22.3125 -6.421875 C 21.695312 -4.859375 20.859375 -3.554688 19.796875 -2.515625 C 18.734375 -1.484375 17.523438 -0.695312 16.171875 -0.15625 C 14.828125 0.375 13.429688 0.640625 11.984375 0.640625 Z M 11.984375 -0.109375 C 13.296875 -0.109375 14.351562 -0.457031 15.15625 -1.15625 C 15.96875 -1.863281 16.554688 -3.066406 16.921875 -4.765625 C 17.296875 -6.472656 17.484375 -8.816406 17.484375 -11.796875 C 17.484375 -14.804688 17.296875 -17.160156 16.921875 -18.859375 C 16.554688 -20.566406 15.96875 -21.769531 15.15625 -22.46875 C 14.351562 -23.175781 13.296875 -23.53125 11.984375 -23.53125 C 10.691406 -23.53125 9.640625 -23.175781 8.828125 -22.46875 C 8.023438 -21.769531 7.4375 -20.566406 7.0625 -18.859375 C 6.695312 -17.160156 6.515625 -14.804688 6.515625 -11.796875 C 6.515625 -8.816406 6.695312 -6.472656 7.0625 -4.765625 C 7.4375 -3.066406 8.023438 -1.863281 8.828125 -1.15625 C 9.640625 -0.457031 10.691406 -0.109375 11.984375 -0.109375 Z M 11.984375 -0.109375 "/></g></g></g><g fill="#00285d" fill-opacity="1"><g transform="translate(156.044117, 175.799492)"><g><path d="M 0.78125 0 L 0.78125 -0.359375 L 1.53125 -0.609375 C 2.007812 -0.773438 2.320312 -0.992188 2.46875 -1.265625 C 2.613281 -1.546875 2.6875 -1.9375 2.6875 -2.4375 L 2.6875 -21.140625 C 2.6875 -21.617188 2.617188 -21.992188 2.484375 -22.265625 C 2.347656 -22.535156 2.054688 -22.753906 1.609375 -22.921875 L 0.78125 -23.25 L 0.78125 -23.609375 L 11.015625 -23.609375 C 13.828125 -23.609375 15.984375 -23.078125 17.484375 -22.015625 C 18.992188 -20.953125 19.75 -19.476562 19.75 -17.59375 C 19.75 -16.539062 19.351562 -15.488281 18.5625 -14.4375 C 17.769531 -13.394531 16.53125 -12.585938 14.84375 -12.015625 L 19.8125 -2.140625 C 20.03125 -1.734375 20.273438 -1.40625 20.546875 -1.15625 C 20.816406 -0.90625 21.179688 -0.6875 21.640625 -0.5 L 22.109375 -0.328125 L 22.109375 0 L 15.703125 0 L 10.40625 -11.265625 L 7.96875 -11.265625 L 7.96875 -2.4375 C 7.96875 -1.976562 8.039062 -1.601562 8.1875 -1.3125 C 8.332031 -1.03125 8.628906 -0.816406 9.078125 -0.671875 L 9.9375 -0.359375 L 9.9375 0 Z M 7.96875 -11.984375 L 9.6875 -11.984375 C 11.40625 -11.984375 12.644531 -12.441406 13.40625 -13.359375 C 14.175781 -14.273438 14.5625 -15.640625 14.5625 -17.453125 C 14.5625 -19.285156 14.203125 -20.648438 13.484375 -21.546875 C 12.765625 -22.441406 11.5625 -22.890625 9.875 -22.890625 L 7.96875 -22.890625 Z M 7.96875 -11.984375 "/></g></g></g><g fill="#00285d" fill-opacity="1"><g transform="translate(178.500396, 175.799492)"><g><path d="M 5.578125 0 L 5.578125 -0.359375 L 7.046875 -0.71875 C 8.023438 -0.925781 8.515625 -1.519531 8.515625 -2.5 L 8.515625 -22.890625 L 5.46875 -22.890625 C 4.59375 -22.890625 3.960938 -22.65625 3.578125 -22.1875 C 3.191406 -21.726562 2.785156 -21.09375 2.359375 -20.28125 L 1.078125 -17.78125 L 0.71875 -17.78125 L 0.890625 -23.609375 L 21.53125 -23.609375 L 21.671875 -17.78125 L 21.3125 -17.78125 L 20.03125 -20.28125 C 19.625 -21.09375 19.226562 -21.726562 18.84375 -22.1875 C 18.46875 -22.65625 17.835938 -22.890625 16.953125 -22.890625 L 13.90625 -22.890625 L 13.90625 -2.5 C 13.90625 -1.519531 14.394531 -0.925781 15.375 -0.71875 L 16.84375 -0.359375 L 16.84375 0 Z M 5.578125 0 "/></g></g></g><g fill="#00285d" fill-opacity="1"><g transform="translate(200.930875, 175.799492)"><g/></g></g><g fill="#00285d" fill-opacity="1"><g transform="translate(109.665458, 205.841305)"><g><path d="M 13.015625 0.640625 C 10.585938 0.640625 8.445312 0.132812 6.59375 -0.875 C 4.75 -1.882812 3.304688 -3.328125 2.265625 -5.203125 C 1.234375 -7.078125 0.71875 -9.289062 0.71875 -11.84375 C 0.71875 -14.320312 1.226562 -16.488281 2.25 -18.34375 C 3.28125 -20.207031 4.765625 -21.65625 6.703125 -22.6875 C 8.648438 -23.726562 11.003906 -24.25 13.765625 -24.25 C 15.035156 -24.25 16.210938 -24.101562 17.296875 -23.8125 C 18.378906 -23.53125 19.410156 -23.113281 20.390625 -22.5625 L 20.53125 -17.5625 L 20.171875 -17.5625 L 18.171875 -21.28125 C 17.859375 -21.875 17.570312 -22.300781 17.3125 -22.5625 C 17.050781 -22.832031 16.71875 -23.035156 16.3125 -23.171875 C 15.925781 -23.296875 15.570312 -23.382812 15.25 -23.4375 C 14.925781 -23.5 14.503906 -23.53125 13.984375 -23.53125 C 12.503906 -23.53125 11.195312 -23.132812 10.0625 -22.34375 C 8.9375 -21.5625 8.0625 -20.3125 7.4375 -18.59375 C 6.820312 -16.875 6.515625 -14.625 6.515625 -11.84375 C 6.515625 -9.070312 6.804688 -6.816406 7.390625 -5.078125 C 7.972656 -3.335938 8.800781 -2.066406 9.875 -1.265625 C 10.945312 -0.472656 12.1875 -0.078125 13.59375 -0.078125 C 13.800781 -0.078125 14.003906 -0.09375 14.203125 -0.125 C 14.410156 -0.15625 14.613281 -0.195312 14.8125 -0.25 C 15.257812 -0.320312 15.554688 -0.507812 15.703125 -0.8125 C 15.847656 -1.125 15.921875 -1.5 15.921875 -1.9375 L 15.921875 -9.015625 C 15.921875 -9.941406 15.441406 -10.515625 14.484375 -10.734375 L 12.84375 -11.15625 L 12.84375 -11.515625 L 22.921875 -11.515625 L 22.921875 -11.15625 L 22.421875 -11.015625 C 21.515625 -10.734375 21.0625 -10.140625 21.0625 -9.234375 L 21.0625 -1.46875 C 19.820312 -0.769531 18.5625 -0.242188 17.28125 0.109375 C 16.007812 0.460938 14.585938 0.640625 13.015625 0.640625 Z M 13.015625 0.640625 "/></g></g></g><g fill="#00285d" fill-opacity="1"><g transform="translate(133.122969, 205.841305)"><g><path d="M 0.78125 0 L 0.78125 -0.359375 L 1.609375 -0.671875 C 2.015625 -0.847656 2.296875 -1.070312 2.453125 -1.34375 C 2.609375 -1.613281 2.6875 -1.988281 2.6875 -2.46875 L 2.6875 -21.140625 C 2.6875 -21.617188 2.617188 -21.992188 2.484375 -22.265625 C 2.347656 -22.535156 2.054688 -22.753906 1.609375 -22.921875 L 0.78125 -23.25 L 0.78125 -23.609375 L 17.921875 -23.609375 L 18.140625 -18.09375 L 17.78125 -18.09375 L 16.234375 -21.453125 C 16.023438 -21.890625 15.800781 -22.238281 15.5625 -22.5 C 15.320312 -22.757812 14.960938 -22.890625 14.484375 -22.890625 L 8.046875 -22.890625 L 8.046875 -12.546875 L 11.875 -12.546875 C 12.351562 -12.546875 12.71875 -12.671875 12.96875 -12.921875 C 13.21875 -13.179688 13.4375 -13.523438 13.625 -13.953125 L 14.34375 -15.375 L 14.703125 -15.375 L 14.703125 -8.9375 L 14.34375 -8.9375 L 13.625 -10.4375 C 13.414062 -10.875 13.191406 -11.21875 12.953125 -11.46875 C 12.710938 -11.71875 12.351562 -11.84375 11.875 -11.84375 L 8.046875 -11.84375 L 8.046875 -0.71875 L 15.265625 -0.71875 C 15.742188 -0.71875 16.113281 -0.84375 16.375 -1.09375 C 16.644531 -1.34375 16.863281 -1.691406 17.03125 -2.140625 L 18.484375 -5.515625 L 18.84375 -5.515625 L 18.640625 0 Z M 0.78125 0 "/></g></g></g><g fill="#00285d" fill-opacity="1"><g transform="translate(152.96888, 205.841305)"><g><path d="M 1.25 0 L 1.25 -0.359375 L 2.4375 -0.71875 C 2.863281 -0.832031 3.171875 -1.0625 3.359375 -1.40625 C 3.546875 -1.757812 3.640625 -2.171875 3.640625 -2.640625 L 3.640625 -19.84375 C 3.378906 -20.414062 3.171875 -20.84375 3.015625 -21.125 C 2.867188 -21.414062 2.695312 -21.660156 2.5 -21.859375 C 2.3125 -22.066406 2.050781 -22.328125 1.71875 -22.640625 L 1.109375 -23.25 L 1.109375 -23.609375 L 7.4375 -23.609375 L 19.3125 -7.40625 L 19.3125 -20.890625 C 19.3125 -21.367188 19.234375 -21.796875 19.078125 -22.171875 C 18.921875 -22.554688 18.609375 -22.804688 18.140625 -22.921875 L 16.953125 -23.25 L 16.953125 -23.609375 L 22.0625 -23.609375 L 22.0625 -23.25 L 21.109375 -22.921875 C 20.671875 -22.785156 20.40625 -22.535156 20.3125 -22.171875 C 20.21875 -21.816406 20.171875 -21.398438 20.171875 -20.921875 L 20.171875 0.109375 L 18.171875 0.109375 L 4.5 -18.671875 L 4.5 -2.640625 C 4.5 -2.171875 4.570312 -1.769531 4.71875 -1.4375 C 4.863281 -1.101562 5.160156 -0.863281 5.609375 -0.71875 L 6.6875 -0.359375 L 6.6875 0 Z M 1.25 0 "/></g></g></g><g fill="#00285d" fill-opacity="1"><g transform="translate(176.319108, 205.841305)"><g><path d="M 0.78125 0 L 0.78125 -0.359375 L 1.609375 -0.671875 C 2.015625 -0.847656 2.296875 -1.070312 2.453125 -1.34375 C 2.609375 -1.613281 2.6875 -1.988281 2.6875 -2.46875 L 2.6875 -21.140625 C 2.6875 -21.617188 2.617188 -21.992188 2.484375 -22.265625 C 2.347656 -22.535156 2.054688 -22.753906 1.609375 -22.921875 L 0.78125 -23.25 L 0.78125 -23.609375 L 17.921875 -23.609375 L 18.140625 -18.09375 L 17.78125 -18.09375 L 16.234375 -21.453125 C 16.023438 -21.890625 15.800781 -22.238281 15.5625 -22.5 C 15.320312 -22.757812 14.960938 -22.890625 14.484375 -22.890625 L 8.046875 -22.890625 L 8.046875 -12.546875 L 11.875 -12.546875 C 12.351562 -12.546875 12.71875 -12.671875 12.96875 -12.921875 C 13.21875 -13.179688 13.4375 -13.523438 13.625 -13.953125 L 14.34375 -15.375 L 14.703125 -15.375 L 14.703125 -8.9375 L 14.34375 -8.9375 L 13.625 -10.4375 C 13.414062 -10.875 13.191406 -11.21875 12.953125 -11.46875 C 12.710938 -11.71875 12.351562 -11.84375 11.875 -11.84375 L 8.046875 -11.84375 L 8.046875 -0.71875 L 15.265625 -0.71875 C 15.742188 -0.71875 16.113281 -0.84375 16.375 -1.09375 C 16.644531 -1.34375 16.863281 -1.691406 17.03125 -2.140625 L 18.484375 -5.515625 L 18.84375 -5.515625 L 18.640625 0 Z M 0.78125 0 "/></g></g></g><g fill="#00285d" fill-opacity="1"><g transform="translate(196.165019, 205.841305)"><g><path d="M 0.78125 0 L 0.78125 -0.359375 L 1.53125 -0.609375 C 2.007812 -0.773438 2.320312 -0.992188 2.46875 -1.265625 C 2.613281 -1.546875 2.6875 -1.9375 2.6875 -2.4375 L 2.6875 -21.140625 C 2.6875 -21.617188 2.617188 -21.992188 2.484375 -22.265625 C 2.347656 -22.535156 2.054688 -22.753906 1.609375 -22.921875 L 0.78125 -23.25 L 0.78125 -23.609375 L 11.015625 -23.609375 C 13.828125 -23.609375 15.984375 -23.078125 17.484375 -22.015625 C 18.992188 -20.953125 19.75 -19.476562 19.75 -17.59375 C 19.75 -16.539062 19.351562 -15.488281 18.5625 -14.4375 C 17.769531 -13.394531 16.53125 -12.585938 14.84375 -12.015625 L 19.8125 -2.140625 C 20.03125 -1.734375 20.273438 -1.40625 20.546875 -1.15625 C 20.816406 -0.90625 21.179688 -0.6875 21.640625 -0.5 L 22.109375 -0.328125 L 22.109375 0 L 15.703125 0 L 10.40625 -11.265625 L 7.96875 -11.265625 L 7.96875 -2.4375 C 7.96875 -1.976562 8.039062 -1.601562 8.1875 -1.3125 C 8.332031 -1.03125 8.628906 -0.816406 9.078125 -0.671875 L 9.9375 -0.359375 L 9.9375 0 Z M 7.96875 -11.984375 L 9.6875 -11.984375 C 11.40625 -11.984375 12.644531 -12.441406 13.40625 -13.359375 C 14.175781 -14.273438 14.5625 -15.640625 14.5625 -17.453125 C 14.5625 -19.285156 14.203125 -20.648438 13.484375 -21.546875 C 12.765625 -22.441406 11.5625 -22.890625 9.875 -22.890625 L 7.96875 -22.890625 Z M 7.96875 -11.984375 "/></g></g></g><g fill="#00285d" fill-opacity="1"><g transform="translate(218.621299, 205.841305)"><g><path d="M 0.28125 0 L 0.28125 -0.359375 L 1.1875 -0.671875 C 1.65625 -0.867188 2.019531 -1.101562 2.28125 -1.375 C 2.550781 -1.644531 2.769531 -2.035156 2.9375 -2.546875 L 10.296875 -23.671875 L 13.34375 -23.671875 L 20.59375 -2.390625 C 20.789062 -1.867188 21.007812 -1.46875 21.25 -1.1875 C 21.488281 -0.914062 21.859375 -0.6875 22.359375 -0.5 L 22.78125 -0.359375 L 22.78125 0 L 13.703125 0 L 13.703125 -0.359375 L 14.234375 -0.53125 C 14.734375 -0.726562 15.035156 -1 15.140625 -1.34375 C 15.253906 -1.6875 15.238281 -2.097656 15.09375 -2.578125 L 13.40625 -7.71875 L 5.46875 -7.71875 L 3.75 -2.6875 C 3.582031 -2.15625 3.53125 -1.734375 3.59375 -1.421875 C 3.65625 -1.117188 3.9375 -0.867188 4.4375 -0.671875 L 5.21875 -0.359375 L 5.21875 0 Z M 5.71875 -8.4375 L 13.203125 -8.4375 L 9.578125 -19.5625 Z M 5.71875 -8.4375 "/></g></g></g><g fill="#00285d" fill-opacity="1"><g transform="translate(241.864262, 205.841305)"><g><path d="M 5.578125 0 L 5.578125 -0.359375 L 7.046875 -0.71875 C 8.023438 -0.925781 8.515625 -1.519531 8.515625 -2.5 L 8.515625 -22.890625 L 5.46875 -22.890625 C 4.59375 -22.890625 3.960938 -22.65625 3.578125 -22.1875 C 3.191406 -21.726562 2.785156 -21.09375 2.359375 -20.28125 L 1.078125 -17.78125 L 0.71875 -17.78125 L 0.890625 -23.609375 L 21.53125 -23.609375 L 21.671875 -17.78125 L 21.3125 -17.78125 L 20.03125 -20.28125 C 19.625 -21.09375 19.226562 -21.726562 18.84375 -22.1875 C 18.46875 -22.65625 17.835938 -22.890625 16.953125 -22.890625 L 13.90625 -22.890625 L 13.90625 -2.5 C 13.90625 -1.519531 14.394531 -0.925781 15.375 -0.71875 L 16.84375 -0.359375 L 16.84375 0 Z M 5.578125 0 "/></g></g></g><g fill="#00285d" fill-opacity="1"><g transform="translate(264.284786, 205.841305)"><g><path d="M 11.984375 0.640625 C 10.523438 0.640625 9.125 0.378906 7.78125 -0.140625 C 6.4375 -0.671875 5.234375 -1.453125 4.171875 -2.484375 C 3.109375 -3.523438 2.265625 -4.816406 1.640625 -6.359375 C 1.023438 -7.910156 0.71875 -9.722656 0.71875 -11.796875 C 0.71875 -13.847656 1.023438 -15.648438 1.640625 -17.203125 C 2.265625 -18.753906 3.113281 -20.046875 4.1875 -21.078125 C 5.257812 -22.117188 6.46875 -22.90625 7.8125 -23.4375 C 9.15625 -23.976562 10.546875 -24.25 11.984375 -24.25 C 13.429688 -24.25 14.828125 -23.992188 16.171875 -23.484375 C 17.523438 -22.972656 18.734375 -22.195312 19.796875 -21.15625 C 20.859375 -20.113281 21.695312 -18.8125 22.3125 -17.25 C 22.9375 -15.695312 23.25 -13.878906 23.25 -11.796875 C 23.25 -9.773438 22.9375 -7.984375 22.3125 -6.421875 C 21.695312 -4.859375 20.859375 -3.554688 19.796875 -2.515625 C 18.734375 -1.484375 17.523438 -0.695312 16.171875 -0.15625 C 14.828125 0.375 13.429688 0.640625 11.984375 0.640625 Z M 11.984375 -0.109375 C 13.296875 -0.109375 14.351562 -0.457031 15.15625 -1.15625 C 15.96875 -1.863281 16.554688 -3.066406 16.921875 -4.765625 C 17.296875 -6.472656 17.484375 -8.816406 17.484375 -11.796875 C 17.484375 -14.804688 17.296875 -17.160156 16.921875 -18.859375 C 16.554688 -20.566406 15.96875 -21.769531 15.15625 -22.46875 C 14.351562 -23.175781 13.296875 -23.53125 11.984375 -23.53125 C 10.691406 -23.53125 9.640625 -23.175781 8.828125 -22.46875 C 8.023438 -21.769531 7.4375 -20.566406 7.0625 -18.859375 C 6.695312 -17.160156 6.515625 -14.804688 6.515625 -11.796875 C 6.515625 -8.816406 6.695312 -6.472656 7.0625 -4.765625 C 7.4375 -3.066406 8.023438 -1.863281 8.828125 -1.15625 C 9.640625 -0.457031 10.691406 -0.109375 11.984375 -0.109375 Z M 11.984375 -0.109375 "/></g></g></g><g fill="#00285d" fill-opacity="1"><g transform="translate(288.24292, 205.841305)"><g><path d="M 0.78125 0 L 0.78125 -0.359375 L 1.53125 -0.609375 C 2.007812 -0.773438 2.320312 -0.992188 2.46875 -1.265625 C 2.613281 -1.546875 2.6875 -1.9375 2.6875 -2.4375 L 2.6875 -21.140625 C 2.6875 -21.617188 2.617188 -21.992188 2.484375 -22.265625 C 2.347656 -22.535156 2.054688 -22.753906 1.609375 -22.921875 L 0.78125 -23.25 L 0.78125 -23.609375 L 11.015625 -23.609375 C 13.828125 -23.609375 15.984375 -23.078125 17.484375 -22.015625 C 18.992188 -20.953125 19.75 -19.476562 19.75 -17.59375 C 19.75 -16.539062 19.351562 -15.488281 18.5625 -14.4375 C 17.769531 -13.394531 16.53125 -12.585938 14.84375 -12.015625 L 19.8125 -2.140625 C 20.03125 -1.734375 20.273438 -1.40625 20.546875 -1.15625 C 20.816406 -0.90625 21.179688 -0.6875 21.640625 -0.5 L 22.109375 -0.328125 L 22.109375 0 L 15.703125 0 L 10.40625 -11.265625 L 7.96875 -11.265625 L 7.96875 -2.4375 C 7.96875 -1.976562 8.039062 -1.601562 8.1875 -1.3125 C 8.332031 -1.03125 8.628906 -0.816406 9.078125 -0.671875 L 9.9375 -0.359375 L 9.9375 0 Z M 7.96875 -11.984375 L 9.6875 -11.984375 C 11.40625 -11.984375 12.644531 -12.441406 13.40625 -13.359375 C 14.175781 -14.273438 14.5625 -15.640625 14.5625 -17.453125 C 14.5625 -19.285156 14.203125 -20.648438 13.484375 -21.546875 C 12.765625 -22.441406 11.5625 -22.890625 9.875 -22.890625 L 7.96875 -22.890625 Z M 7.96875 -11.984375 "/></g></g></g><g fill="#00285d" fill-opacity="1"><g transform="translate(113.917733, 224.908257)"><g><path d="M 2.3125 -8.59375 L 2.3125 -0.828125 L 6.4375 -0.828125 L 6.4375 0 L 1.296875 0 L 1.296875 -8.59375 Z M 2.3125 -8.59375 "/></g></g></g><g fill="#00285d" fill-opacity="1"><g transform="translate(120.724293, 224.908257)"><g><path d="M 2.3125 -4.046875 L 2.3125 -0.828125 L 6.6875 -0.828125 L 6.6875 0 L 1.296875 0 L 1.296875 -8.59375 L 6.59375 -8.59375 L 6.59375 -7.75 L 2.3125 -7.75 L 2.3125 -4.875 L 6.09375 -4.875 L 6.09375 -4.046875 Z M 2.3125 -4.046875 "/></g></g></g><g fill="#00285d" fill-opacity="1"><g transform="translate(127.977186, 224.908257)"><g><path d="M 4.515625 0.125 C 3.796875 0.125 3.160156 -0.0351562 2.609375 -0.359375 C 2.054688 -0.691406 1.625 -1.1875 1.3125 -1.84375 C 1.007812 -2.507812 0.859375 -3.328125 0.859375 -4.296875 C 0.859375 -5.253906 1.019531 -6.0625 1.34375 -6.71875 C 1.675781 -7.382812 2.132812 -7.882812 2.71875 -8.21875 C 3.3125 -8.550781 3.992188 -8.71875 4.765625 -8.71875 C 5.585938 -8.71875 6.257812 -8.566406 6.78125 -8.265625 C 7.3125 -7.972656 7.6875 -7.53125 7.90625 -6.9375 L 7.25 -6.5625 L 7.109375 -6.5625 C 6.890625 -7 6.585938 -7.316406 6.203125 -7.515625 C 5.828125 -7.710938 5.347656 -7.8125 4.765625 -7.8125 C 2.878906 -7.8125 1.9375 -6.640625 1.9375 -4.296875 C 1.9375 -3.078125 2.171875 -2.1875 2.640625 -1.625 C 3.117188 -1.0625 3.785156 -0.78125 4.640625 -0.78125 C 5.421875 -0.78125 6.003906 -0.957031 6.390625 -1.3125 C 6.785156 -1.675781 6.984375 -2.242188 6.984375 -3.015625 L 6.984375 -3.765625 L 4.546875 -3.765625 L 4.546875 -4.578125 L 7.96875 -4.578125 L 7.96875 0 L 7.03125 0 L 7.03125 -1.15625 L 6.90625 -1.1875 C 6.675781 -0.738281 6.359375 -0.40625 5.953125 -0.1875 C 5.554688 0.0195312 5.078125 0.125 4.515625 0.125 Z M 4.515625 0.125 "/></g></g></g><g fill="#00285d" fill-opacity="1"><g transform="translate(136.903823, 224.908257)"><g><path d="M 7.734375 0 L 6.65625 0 L 5.859375 -2.359375 L 2.203125 -2.359375 L 1.390625 0 L 0.34375 0 L 3.34375 -8.59375 L 4.734375 -8.59375 Z M 3.953125 -7.546875 L 2.484375 -3.203125 L 5.5625 -3.203125 L 4.09375 -7.546875 Z M 3.953125 -7.546875 "/></g></g></g><g fill="#00285d" fill-opacity="1"><g transform="translate(144.973033, 224.908257)"><g><path d="M 2.3125 -8.59375 L 2.3125 -0.828125 L 6.4375 -0.828125 L 6.4375 0 L 1.296875 0 L 1.296875 -8.59375 Z M 2.3125 -8.59375 "/></g></g></g><g fill="#00285d" fill-opacity="1"><g transform="translate(151.779594, 224.908257)"><g/></g></g><g fill="#00285d" fill-opacity="1"><g transform="translate(154.727733, 224.908257)"><g><path d="M 7.734375 0 L 6.65625 0 L 5.859375 -2.359375 L 2.203125 -2.359375 L 1.390625 0 L 0.34375 0 L 3.34375 -8.59375 L 4.734375 -8.59375 Z M 3.953125 -7.546875 L 2.484375 -3.203125 L 5.5625 -3.203125 L 4.09375 -7.546875 Z M 3.953125 -7.546875 "/></g></g></g><g fill="#00285d" fill-opacity="1"><g transform="translate(162.796943, 224.908257)"><g><path d="M 4.75 0.125 C 4 0.125 3.328125 -0.046875 2.734375 -0.390625 C 2.148438 -0.734375 1.691406 -1.238281 1.359375 -1.90625 C 1.023438 -2.570312 0.859375 -3.367188 0.859375 -4.296875 C 0.859375 -5.222656 1.023438 -6.015625 1.359375 -6.671875 C 1.691406 -7.335938 2.148438 -7.84375 2.734375 -8.1875 C 3.328125 -8.539062 4 -8.71875 4.75 -8.71875 C 5.550781 -8.71875 6.21875 -8.5625 6.75 -8.25 C 7.28125 -7.945312 7.664062 -7.492188 7.90625 -6.890625 L 7.25 -6.453125 L 7.109375 -6.453125 C 6.867188 -6.941406 6.5625 -7.289062 6.1875 -7.5 C 5.8125 -7.707031 5.332031 -7.8125 4.75 -7.8125 C 4.207031 -7.8125 3.722656 -7.6875 3.296875 -7.4375 C 2.878906 -7.195312 2.546875 -6.816406 2.296875 -6.296875 C 2.054688 -5.773438 1.9375 -5.109375 1.9375 -4.296875 C 1.9375 -3.484375 2.054688 -2.816406 2.296875 -2.296875 C 2.546875 -1.773438 2.878906 -1.390625 3.296875 -1.140625 C 3.722656 -0.898438 4.207031 -0.78125 4.75 -0.78125 C 5.375 -0.78125 5.882812 -0.921875 6.28125 -1.203125 C 6.675781 -1.484375 6.96875 -1.9375 7.15625 -2.5625 L 7.296875 -2.5625 L 7.984375 -2.234375 C 7.773438 -1.472656 7.394531 -0.890625 6.84375 -0.484375 C 6.289062 -0.078125 5.59375 0.125 4.75 0.125 Z M 4.75 0.125 "/></g></g></g><g fill="#00285d" fill-opacity="1"><g transform="translate(171.21852, 224.908257)"><g><path d="M 6.90625 2 C 6.195312 2 5.601562 1.832031 5.125 1.5 C 4.644531 1.175781 4.3125 0.707031 4.125 0.09375 C 3.476562 0.0078125 2.910156 -0.203125 2.421875 -0.546875 C 1.929688 -0.890625 1.546875 -1.375 1.265625 -2 C 0.992188 -2.632812 0.859375 -3.398438 0.859375 -4.296875 C 0.859375 -5.273438 1.023438 -6.09375 1.359375 -6.75 C 1.691406 -7.414062 2.144531 -7.910156 2.71875 -8.234375 C 3.300781 -8.554688 3.96875 -8.71875 4.71875 -8.71875 C 5.457031 -8.71875 6.113281 -8.554688 6.6875 -8.234375 C 7.269531 -7.910156 7.726562 -7.414062 8.0625 -6.75 C 8.394531 -6.09375 8.5625 -5.273438 8.5625 -4.296875 C 8.5625 -2.953125 8.257812 -1.925781 7.65625 -1.21875 C 7.050781 -0.519531 6.21875 -0.101562 5.15625 0.03125 L 5.125 0.140625 C 5.269531 0.472656 5.5 0.71875 5.8125 0.875 C 6.125 1.039062 6.492188 1.125 6.921875 1.125 C 7.140625 1.125 7.34375 1.097656 7.53125 1.046875 L 7.640625 1.0625 L 7.796875 1.84375 C 7.554688 1.945312 7.257812 2 6.90625 2 Z M 4.71875 -0.8125 C 5.601562 -0.8125 6.285156 -1.085938 6.765625 -1.640625 C 7.242188 -2.203125 7.484375 -3.085938 7.484375 -4.296875 C 7.484375 -5.503906 7.242188 -6.382812 6.765625 -6.9375 C 6.285156 -7.5 5.601562 -7.78125 4.71875 -7.78125 C 2.863281 -7.78125 1.9375 -6.617188 1.9375 -4.296875 C 1.9375 -1.972656 2.863281 -0.8125 4.71875 -0.8125 Z M 4.71875 -0.8125 "/></g></g></g><g fill="#00285d" fill-opacity="1"><g transform="translate(180.638472, 224.908257)"><g><path d="M 4.421875 0.125 C 3.367188 0.125 2.570312 -0.140625 2.03125 -0.671875 C 1.5 -1.210938 1.234375 -2.007812 1.234375 -3.0625 L 1.234375 -8.59375 L 2.234375 -8.59375 L 2.234375 -3.0625 C 2.234375 -2.3125 2.410156 -1.75 2.765625 -1.375 C 3.128906 -1 3.679688 -0.8125 4.421875 -0.8125 C 5.890625 -0.8125 6.625 -1.5625 6.625 -3.0625 L 6.625 -8.59375 L 7.625 -8.59375 L 7.625 -3.0625 C 7.625 -2.007812 7.351562 -1.210938 6.8125 -0.671875 C 6.28125 -0.140625 5.484375 0.125 4.421875 0.125 Z M 4.421875 0.125 "/></g></g></g><g fill="#00285d" fill-opacity="1"><g transform="translate(189.488762, 224.908257)"><g><path d="M 2.3125 0 L 1.296875 0 L 1.296875 -8.59375 L 2.3125 -8.59375 Z M 2.3125 0 "/></g></g></g><g fill="#00285d" fill-opacity="1"><g transform="translate(193.100527, 224.908257)"><g><path d="M 3.75 0.125 C 3.207031 0.125 2.722656 0.0507812 2.296875 -0.09375 C 1.867188 -0.238281 1.507812 -0.429688 1.21875 -0.671875 C 0.9375 -0.910156 0.726562 -1.175781 0.59375 -1.46875 L 1.140625 -2.125 L 1.28125 -2.125 C 1.8125 -1.226562 2.632812 -0.78125 3.75 -0.78125 C 4.394531 -0.78125 4.875 -0.914062 5.1875 -1.1875 C 5.507812 -1.457031 5.671875 -1.835938 5.671875 -2.328125 C 5.671875 -2.609375 5.617188 -2.84375 5.515625 -3.03125 C 5.410156 -3.226562 5.238281 -3.394531 5 -3.53125 C 4.757812 -3.675781 4.4375 -3.800781 4.03125 -3.90625 L 3.015625 -4.140625 C 2.265625 -4.328125 1.710938 -4.613281 1.359375 -5 C 1.003906 -5.394531 0.828125 -5.894531 0.828125 -6.5 C 0.828125 -6.925781 0.9375 -7.304688 1.15625 -7.640625 C 1.375 -7.972656 1.695312 -8.234375 2.125 -8.421875 C 2.550781 -8.617188 3.054688 -8.71875 3.640625 -8.71875 C 4.285156 -8.71875 4.828125 -8.625 5.265625 -8.4375 C 5.710938 -8.257812 6.070312 -7.988281 6.34375 -7.625 L 5.84375 -6.953125 L 5.703125 -6.953125 C 5.453125 -7.253906 5.160156 -7.472656 4.828125 -7.609375 C 4.492188 -7.753906 4.097656 -7.828125 3.640625 -7.828125 C 3.046875 -7.828125 2.597656 -7.710938 2.296875 -7.484375 C 1.992188 -7.253906 1.84375 -6.9375 1.84375 -6.53125 C 1.84375 -6.132812 1.953125 -5.820312 2.171875 -5.59375 C 2.398438 -5.363281 2.773438 -5.1875 3.296875 -5.0625 L 4.328125 -4.828125 C 5.160156 -4.628906 5.765625 -4.328125 6.140625 -3.921875 C 6.515625 -3.515625 6.703125 -3 6.703125 -2.375 C 6.703125 -1.882812 6.59375 -1.453125 6.375 -1.078125 C 6.15625 -0.703125 5.820312 -0.40625 5.375 -0.1875 C 4.9375 0.0195312 4.394531 0.125 3.75 0.125 Z M 3.75 0.125 "/></g></g></g><g fill="#00285d" fill-opacity="1"><g transform="translate(200.459129, 224.908257)"><g><path d="M 2.3125 0 L 1.296875 0 L 1.296875 -8.59375 L 2.3125 -8.59375 Z M 2.3125 0 "/></g></g></g><g fill="#00285d" fill-opacity="1"><g transform="translate(204.070894, 224.908257)"><g><path d="M 6.703125 -8.59375 L 6.703125 -7.734375 L 4.015625 -7.734375 L 4.015625 0 L 3.015625 0 L 3.015625 -7.734375 L 0.3125 -7.734375 L 0.3125 -8.59375 Z M 6.703125 -8.59375 "/></g></g></g><g fill="#00285d" fill-opacity="1"><g transform="translate(211.083002, 224.908257)"><g><path d="M 2.3125 0 L 1.296875 0 L 1.296875 -8.59375 L 2.3125 -8.59375 Z M 2.3125 0 "/></g></g></g><g fill="#00285d" fill-opacity="1"><g transform="translate(214.694766, 224.908257)"><g><path d="M 4.71875 0.125 C 3.96875 0.125 3.300781 -0.0351562 2.71875 -0.359375 C 2.144531 -0.679688 1.691406 -1.171875 1.359375 -1.828125 C 1.023438 -2.484375 0.859375 -3.304688 0.859375 -4.296875 C 0.859375 -5.273438 1.023438 -6.09375 1.359375 -6.75 C 1.691406 -7.414062 2.144531 -7.910156 2.71875 -8.234375 C 3.300781 -8.554688 3.96875 -8.71875 4.71875 -8.71875 C 5.457031 -8.71875 6.113281 -8.554688 6.6875 -8.234375 C 7.269531 -7.910156 7.726562 -7.414062 8.0625 -6.75 C 8.394531 -6.09375 8.5625 -5.273438 8.5625 -4.296875 C 8.5625 -3.304688 8.394531 -2.484375 8.0625 -1.828125 C 7.726562 -1.171875 7.269531 -0.679688 6.6875 -0.359375 C 6.113281 -0.0351562 5.457031 0.125 4.71875 0.125 Z M 4.71875 -0.8125 C 5.601562 -0.8125 6.285156 -1.085938 6.765625 -1.640625 C 7.242188 -2.203125 7.484375 -3.085938 7.484375 -4.296875 C 7.484375 -5.503906 7.242188 -6.382812 6.765625 -6.9375 C 6.285156 -7.5 5.601562 -7.78125 4.71875 -7.78125 C 2.863281 -7.78125 1.9375 -6.617188 1.9375 -4.296875 C 1.9375 -1.972656 2.863281 -0.8125 4.71875 -0.8125 Z M 4.71875 -0.8125 "/></g></g></g><g fill="#00285d" fill-opacity="1"><g transform="translate(224.114718, 224.908257)"><g><path d="M 2.28125 0 L 1.296875 0 L 1.296875 -8.59375 L 2.53125 -8.59375 L 6.71875 -2.03125 L 6.875 -2.046875 L 6.875 -8.59375 L 7.859375 -8.59375 L 7.859375 0 L 6.796875 0 L 2.4375 -7.015625 L 2.28125 -7 Z M 2.28125 0 "/></g></g></g><g fill="#00285d" fill-opacity="1"><g transform="translate(233.270393, 224.908257)"><g/></g></g><g fill="#00285d" fill-opacity="1"><g transform="translate(236.218533, 224.908257)"><g><path d="M 3.75 0.125 C 3.207031 0.125 2.722656 0.0507812 2.296875 -0.09375 C 1.867188 -0.238281 1.507812 -0.429688 1.21875 -0.671875 C 0.9375 -0.910156 0.726562 -1.175781 0.59375 -1.46875 L 1.140625 -2.125 L 1.28125 -2.125 C 1.8125 -1.226562 2.632812 -0.78125 3.75 -0.78125 C 4.394531 -0.78125 4.875 -0.914062 5.1875 -1.1875 C 5.507812 -1.457031 5.671875 -1.835938 5.671875 -2.328125 C 5.671875 -2.609375 5.617188 -2.84375 5.515625 -3.03125 C 5.410156 -3.226562 5.238281 -3.394531 5 -3.53125 C 4.757812 -3.675781 4.4375 -3.800781 4.03125 -3.90625 L 3.015625 -4.140625 C 2.265625 -4.328125 1.710938 -4.613281 1.359375 -5 C 1.003906 -5.394531 0.828125 -5.894531 0.828125 -6.5 C 0.828125 -6.925781 0.9375 -7.304688 1.15625 -7.640625 C 1.375 -7.972656 1.695312 -8.234375 2.125 -8.421875 C 2.550781 -8.617188 3.054688 -8.71875 3.640625 -8.71875 C 4.285156 -8.71875 4.828125 -8.625 5.265625 -8.4375 C 5.710938 -8.257812 6.070312 -7.988281 6.34375 -7.625 L 5.84375 -6.953125 L 5.703125 -6.953125 C 5.453125 -7.253906 5.160156 -7.472656 4.828125 -7.609375 C 4.492188 -7.753906 4.097656 -7.828125 3.640625 -7.828125 C 3.046875 -7.828125 2.597656 -7.710938 2.296875 -7.484375 C 1.992188 -7.253906 1.84375 -6.9375 1.84375 -6.53125 C 1.84375 -6.132812 1.953125 -5.820312 2.171875 -5.59375 C 2.398438 -5.363281 2.773438 -5.1875 3.296875 -5.0625 L 4.328125 -4.828125 C 5.160156 -4.628906 5.765625 -4.328125 6.140625 -3.921875 C 6.515625 -3.515625 6.703125 -3 6.703125 -2.375 C 6.703125 -1.882812 6.59375 -1.453125 6.375 -1.078125 C 6.15625 -0.703125 5.820312 -0.40625 5.375 -0.1875 C 4.9375 0.0195312 4.394531 0.125 3.75 0.125 Z M 3.75 0.125 "/></g></g></g><g fill="#00285d" fill-opacity="1"><g transform="translate(243.577135, 224.908257)"><g><path d="M 4.375 -8.59375 C 4.957031 -8.59375 5.460938 -8.484375 5.890625 -8.265625 C 6.316406 -8.054688 6.640625 -7.753906 6.859375 -7.359375 C 7.078125 -6.972656 7.1875 -6.507812 7.1875 -5.96875 C 7.1875 -5.4375 7.078125 -4.972656 6.859375 -4.578125 C 6.640625 -4.191406 6.316406 -3.890625 5.890625 -3.671875 C 5.460938 -3.460938 4.957031 -3.359375 4.375 -3.359375 L 2.3125 -3.359375 L 2.3125 0 L 1.296875 0 L 1.296875 -8.59375 Z M 4.34375 -4.21875 C 5.539062 -4.21875 6.140625 -4.800781 6.140625 -5.96875 C 6.140625 -7.144531 5.539062 -7.734375 4.34375 -7.734375 L 2.3125 -7.734375 L 2.3125 -4.21875 Z M 4.34375 -4.21875 "/></g></g></g><g fill="#00285d" fill-opacity="1"><g transform="translate(251.405561, 224.908257)"><g><path d="M 2.3125 -4.046875 L 2.3125 -0.828125 L 6.6875 -0.828125 L 6.6875 0 L 1.296875 0 L 1.296875 -8.59375 L 6.59375 -8.59375 L 6.59375 -7.75 L 2.3125 -7.75 L 2.3125 -4.875 L 6.09375 -4.875 L 6.09375 -4.046875 Z M 2.3125 -4.046875 "/></g></g></g><g fill="#00285d" fill-opacity="1"><g transform="translate(258.658454, 224.908257)"><g><path d="M 4.75 0.125 C 4 0.125 3.328125 -0.046875 2.734375 -0.390625 C 2.148438 -0.734375 1.691406 -1.238281 1.359375 -1.90625 C 1.023438 -2.570312 0.859375 -3.367188 0.859375 -4.296875 C 0.859375 -5.222656 1.023438 -6.015625 1.359375 -6.671875 C 1.691406 -7.335938 2.148438 -7.84375 2.734375 -8.1875 C 3.328125 -8.539062 4 -8.71875 4.75 -8.71875 C 5.550781 -8.71875 6.21875 -8.5625 6.75 -8.25 C 7.28125 -7.945312 7.664062 -7.492188 7.90625 -6.890625 L 7.25 -6.453125 L 7.109375 -6.453125 C 6.867188 -6.941406 6.5625 -7.289062 6.1875 -7.5 C 5.8125 -7.707031 5.332031 -7.8125 4.75 -7.8125 C 4.207031 -7.8125 3.722656 -7.6875 3.296875 -7.4375 C 2.878906 -7.195312 2.546875 -6.816406 2.296875 -6.296875 C 2.054688 -5.773438 1.9375 -5.109375 1.9375 -4.296875 C 1.9375 -3.484375 2.054688 -2.816406 2.296875 -2.296875 C 2.546875 -1.773438 2.878906 -1.390625 3.296875 -1.140625 C 3.722656 -0.898438 4.207031 -0.78125 4.75 -0.78125 C 5.375 -0.78125 5.882812 -0.921875 6.28125 -1.203125 C 6.675781 -1.484375 6.96875 -1.9375 7.15625 -2.5625 L 7.296875 -2.5625 L 7.984375 -2.234375 C 7.773438 -1.472656 7.394531 -0.890625 6.84375 -0.484375 C 6.289062 -0.078125 5.59375 0.125 4.75 0.125 Z M 4.75 0.125 "/></g></g></g><g fill="#00285d" fill-opacity="1"><g transform="translate(267.080031, 224.908257)"><g><path d="M 2.3125 0 L 1.296875 0 L 1.296875 -8.59375 L 2.3125 -8.59375 Z M 2.3125 0 "/></g></g></g><g fill="#00285d" fill-opacity="1"><g transform="translate(270.691795, 224.908257)"><g><path d="M 7.734375 0 L 6.65625 0 L 5.859375 -2.359375 L 2.203125 -2.359375 L 1.390625 0 L 0.34375 0 L 3.34375 -8.59375 L 4.734375 -8.59375 Z M 3.953125 -7.546875 L 2.484375 -3.203125 L 5.5625 -3.203125 L 4.09375 -7.546875 Z M 3.953125 -7.546875 "/></g></g></g><g fill="#00285d" fill-opacity="1"><g transform="translate(278.761005, 224.908257)"><g><path d="M 2.3125 -8.59375 L 2.3125 -0.828125 L 6.4375 -0.828125 L 6.4375 0 L 1.296875 0 L 1.296875 -8.59375 Z M 2.3125 -8.59375 "/></g></g></g><g fill="#00285d" fill-opacity="1"><g transform="translate(285.567566, 224.908257)"><g><path d="M 2.3125 0 L 1.296875 0 L 1.296875 -8.59375 L 2.3125 -8.59375 Z M 2.3125 0 "/></g></g></g><g fill="#00285d" fill-opacity="1"><g transform="translate(289.179331, 224.908257)"><g><path d="M 3.75 0.125 C 3.207031 0.125 2.722656 0.0507812 2.296875 -0.09375 C 1.867188 -0.238281 1.507812 -0.429688 1.21875 -0.671875 C 0.9375 -0.910156 0.726562 -1.175781 0.59375 -1.46875 L 1.140625 -2.125 L 1.28125 -2.125 C 1.8125 -1.226562 2.632812 -0.78125 3.75 -0.78125 C 4.394531 -0.78125 4.875 -0.914062 5.1875 -1.1875 C 5.507812 -1.457031 5.671875 -1.835938 5.671875 -2.328125 C 5.671875 -2.609375 5.617188 -2.84375 5.515625 -3.03125 C 5.410156 -3.226562 5.238281 -3.394531 5 -3.53125 C 4.757812 -3.675781 4.4375 -3.800781 4.03125 -3.90625 L 3.015625 -4.140625 C 2.265625 -4.328125 1.710938 -4.613281 1.359375 -5 C 1.003906 -5.394531 0.828125 -5.894531 0.828125 -6.5 C 0.828125 -6.925781 0.9375 -7.304688 1.15625 -7.640625 C 1.375 -7.972656 1.695312 -8.234375 2.125 -8.421875 C 2.550781 -8.617188 3.054688 -8.71875 3.640625 -8.71875 C 4.285156 -8.71875 4.828125 -8.625 5.265625 -8.4375 C 5.710938 -8.257812 6.070312 -7.988281 6.34375 -7.625 L 5.84375 -6.953125 L 5.703125 -6.953125 C 5.453125 -7.253906 5.160156 -7.472656 4.828125 -7.609375 C 4.492188 -7.753906 4.097656 -7.828125 3.640625 -7.828125 C 3.046875 -7.828125 2.597656 -7.710938 2.296875 -7.484375 C 1.992188 -7.253906 1.84375 -6.9375 1.84375 -6.53125 C 1.84375 -6.132812 1.953125 -5.820312 2.171875 -5.59375 C 2.398438 -5.363281 2.773438 -5.1875 3.296875 -5.0625 L 4.328125 -4.828125 C 5.160156 -4.628906 5.765625 -4.328125 6.140625 -3.921875 C 6.515625 -3.515625 6.703125 -3 6.703125 -2.375 C 6.703125 -1.882812 6.59375 -1.453125 6.375 -1.078125 C 6.15625 -0.703125 5.820312 -0.40625 5.375 -0.1875 C 4.9375 0.0195312 4.394531 0.125 3.75 0.125 Z M 3.75 0.125 "/></g></g></g><g fill="#00285d" fill-opacity="1"><g transform="translate(296.537933, 224.908257)"><g><path d="M 6.703125 -8.59375 L 6.703125 -7.734375 L 4.015625 -7.734375 L 4.015625 0 L 3.015625 0 L 3.015625 -7.734375 L 0.3125 -7.734375 L 0.3125 -8.59375 Z M 6.703125 -8.59375 "/></g></g></g><g fill="#00285d" fill-opacity="1"><g transform="translate(303.550042, 224.908257)"><g><path d="M 3.75 0.125 C 3.207031 0.125 2.722656 0.0507812 2.296875 -0.09375 C 1.867188 -0.238281 1.507812 -0.429688 1.21875 -0.671875 C 0.9375 -0.910156 0.726562 -1.175781 0.59375 -1.46875 L 1.140625 -2.125 L 1.28125 -2.125 C 1.8125 -1.226562 2.632812 -0.78125 3.75 -0.78125 C 4.394531 -0.78125 4.875 -0.914062 5.1875 -1.1875 C 5.507812 -1.457031 5.671875 -1.835938 5.671875 -2.328125 C 5.671875 -2.609375 5.617188 -2.84375 5.515625 -3.03125 C 5.410156 -3.226562 5.238281 -3.394531 5 -3.53125 C 4.757812 -3.675781 4.4375 -3.800781 4.03125 -3.90625 L 3.015625 -4.140625 C 2.265625 -4.328125 1.710938 -4.613281 1.359375 -5 C 1.003906 -5.394531 0.828125 -5.894531 0.828125 -6.5 C 0.828125 -6.925781 0.9375 -7.304688 1.15625 -7.640625 C 1.375 -7.972656 1.695312 -8.234375 2.125 -8.421875 C 2.550781 -8.617188 3.054688 -8.71875 3.640625 -8.71875 C 4.285156 -8.71875 4.828125 -8.625 5.265625 -8.4375 C 5.710938 -8.257812 6.070312 -7.988281 6.34375 -7.625 L 5.84375 -6.953125 L 5.703125 -6.953125 C 5.453125 -7.253906 5.160156 -7.472656 4.828125 -7.609375 C 4.492188 -7.753906 4.097656 -7.828125 3.640625 -7.828125 C 3.046875 -7.828125 2.597656 -7.710938 2.296875 -7.484375 C 1.992188 -7.253906 1.84375 -6.9375 1.84375 -6.53125 C 1.84375 -6.132812 1.953125 -5.820312 2.171875 -5.59375 C 2.398438 -5.363281 2.773438 -5.1875 3.296875 -5.0625 L 4.328125 -4.828125 C 5.160156 -4.628906 5.765625 -4.328125 6.140625 -3.921875 C 6.515625 -3.515625 6.703125 -3 6.703125 -2.375 C 6.703125 -1.882812 6.59375 -1.453125 6.375 -1.078125 C 6.15625 -0.703125 5.820312 -0.40625 5.375 -0.1875 C 4.9375 0.0195312 4.394531 0.125 3.75 0.125 Z M 3.75 0.125 "/></g></g></g></svg>