<svg width="60" height="60" viewBox="0 0 60 60" fill="none" xmlns="http://www.w3.org/2000/svg">
<path d="M15.2801 44.3762H14.0767V43.1728C14.0767 42.7197 13.7094 42.3525 13.2564 42.3525H10.7011C10.248 42.3525 9.88078 42.7197 9.88078 43.1728V44.3762H8.6775C8.22445 44.3762 7.85719 44.7435 7.85719 45.1965V47.7517C7.85719 48.2047 8.22445 48.572 8.6775 48.572H9.8809V49.7755C9.8809 50.2285 10.2482 50.5958 10.7012 50.5958H13.2565C13.7095 50.5958 14.0768 50.2285 14.0768 49.7755V48.572H15.2802C15.7332 48.572 16.1005 48.2047 16.1005 47.7517V45.1965C16.1004 44.7435 15.7331 44.3762 15.2801 44.3762ZM14.4598 46.9314H13.2564C12.8033 46.9314 12.4361 47.2986 12.4361 47.7517V48.9552H11.5214V47.7517C11.5214 47.2986 11.1541 46.9314 10.7011 46.9314H9.49781V46.0168H10.7012C11.1543 46.0168 11.5215 45.6496 11.5215 45.1965V43.9931H12.4362V45.1965C12.4362 45.6496 12.8034 46.0168 13.2565 46.0168H14.4599L14.4598 46.9314ZM37.323 36.804C37.6772 35.4819 37.4932 34.097 36.8047 32.9046C36.1162 31.7122 35.0089 30.8604 33.6868 30.506C32.365 30.152 30.9798 30.3358 29.7874 31.0243C28.595 31.7128 27.7432 32.8201 27.3888 34.1422L24.5754 44.6424C24.4241 45.2073 24.3718 45.7834 24.4144 46.3512L23.1867 46.0222C23.0924 45.9969 22.9977 45.9752 22.9028 45.9554V38.0423C22.9028 37.2307 22.5995 36.4985 22.0259 35.9248L18.6267 32.5242C18.3561 32.2535 18.2302 31.9493 18.2302 31.5664V29.2101H18.4058C19.2579 29.2101 19.9512 28.5169 19.9512 27.6648V24.047C19.9512 23.1949 19.2579 22.5016 18.4058 22.5016H5.55164C4.69957 22.5016 4.00629 23.1949 4.00629 24.047V27.6648C4.00629 28.5169 4.69957 29.2101 5.55164 29.2101H5.7273V31.5664C5.7273 31.9492 5.60133 32.2535 5.33074 32.5243L1.93172 35.9246C1.35797 36.4985 1.05469 37.2308 1.05469 38.0423V55.9493C1.05469 57.601 2.39848 58.9448 4.05023 58.9448H19.9073C21.3442 58.9448 22.5475 57.9278 22.8364 56.5759L31.025 58.7701C31.4647 58.8879 31.9112 58.9461 32.3555 58.9461C33.2468 58.9461 34.1287 58.7113 34.9246 58.2518C36.1171 57.5633 36.9688 56.456 37.3232 55.1339C37.6773 53.8118 37.4933 52.4269 36.8048 51.2345C36.135 50.0742 35.068 49.238 33.7931 48.8673C34.1147 48.3962 34.358 47.8701 34.5096 47.3044L37.323 36.804ZM28.9736 34.5668C29.2144 33.668 29.7947 32.9143 30.6076 32.4451C31.1508 32.1315 31.7518 31.9713 32.359 31.9713C32.6606 31.9713 32.9638 32.0108 33.2621 32.0908C34.161 32.3317 34.9146 32.912 35.3838 33.7249C35.853 34.5378 35.979 35.4806 35.7381 36.3794L34.5437 40.8371L27.7789 39.0246L28.9736 34.5668ZM26.1601 45.067L27.3545 40.6093L34.1193 42.4219L32.9248 46.8797C32.6839 47.7785 32.1036 48.532 31.2907 49.0012C30.4777 49.4708 29.5349 49.5964 28.6362 49.3555C27.7373 49.1147 26.9838 48.5344 26.5146 47.7214C26.0452 46.9085 25.9193 45.9657 26.1601 45.067ZM24.9053 48.1813C24.9636 48.303 25.0254 48.4236 25.0936 48.5417C25.5207 49.2815 26.1093 49.8899 26.81 50.33L25.4071 55.5662L20.9494 54.3717C19.0843 53.872 17.9735 51.948 18.4733 50.083C18.973 48.218 20.8973 47.1074 22.762 47.6069L24.9053 48.1813ZM16.8989 52.3473H2.69531V40.601H21.2623V45.8824C20.576 45.9634 19.9057 46.1835 19.2873 46.5404C18.0948 47.2289 17.2431 48.3362 16.8887 49.6583C16.6493 50.5523 16.6567 51.4748 16.8989 52.3473ZM5.64703 24.1422H18.3105V27.5695H5.64703V24.1422ZM3.09199 37.0844L6.49113 33.684C7.06476 33.1101 7.36793 32.3778 7.36793 31.5664V29.2101H16.5895V31.5664C16.5895 32.3781 16.8928 33.1104 17.4666 33.684L20.8656 37.0846C21.1362 37.3553 21.2621 37.6595 21.2621 38.0423V38.9604H2.69531V38.0423C2.69531 37.6597 2.82129 37.3553 3.09199 37.0844ZM19.9073 57.3041H4.05023C3.30316 57.3041 2.69531 56.6962 2.69531 55.9492V53.9878H17.6838C18.3751 54.9551 19.3678 55.6462 20.525 55.9564L21.2457 56.1496C21.1484 56.8017 20.5862 57.3041 19.9073 57.3041ZM35.7383 54.7092C35.2386 56.5742 33.3143 57.6852 31.4496 57.1853L26.9919 55.9908L28.3373 50.9696C28.7364 51.066 29.14 51.1163 29.542 51.1163C30.4334 51.1163 31.3151 50.8815 32.111 50.422C32.2293 50.3537 32.3432 50.2802 32.4546 50.2039L33.2623 50.4205C35.1273 50.9202 36.238 52.8442 35.7383 54.7092ZM58.8567 53.5145C58.6773 52.8445 58.2459 52.2837 57.6424 51.9353C57.039 51.5866 56.3377 51.4939 55.6678 51.6732L54.1659 52.0756L52.4896 45.8192L55.9875 44.882C56.6575 44.7026 57.2183 44.2713 57.5667 43.6678C57.9152 43.0643 58.0083 42.363 57.8287 41.6931C57.4569 40.3063 56.0262 39.4805 54.6397 39.8518L53.3688 40.1924L47.4014 17.9217C46.9103 16.089 45.4376 14.7771 43.7006 14.3968L42.9691 11.6669C42.9129 11.4568 42.7753 11.2776 42.5869 11.1689C42.3984 11.06 42.1743 11.0306 41.9644 11.087L41.3786 11.244L38.8111 1.6624C38.6937 1.22483 38.2437 0.965139 37.8064 1.08233C37.3689 1.19951 37.1092 1.6494 37.2264 2.08697L39.7938 11.6687L39.208 11.8256C38.7704 11.9428 38.5107 12.3927 38.6279 12.8303L39.3594 15.5601C38.0452 16.758 37.4258 18.6303 37.9168 20.4631L43.8843 42.7339L42.6132 43.0745C41.9434 43.2539 41.3827 43.6853 41.0341 44.2887C40.6856 44.8922 40.5927 45.5935 40.7722 46.2634C40.9516 46.9333 41.3829 47.4942 41.9864 47.8427C42.3892 48.0751 42.8352 48.1939 43.2866 48.1939C43.5118 48.1939 43.7382 48.1644 43.9613 48.1045L43.9611 48.1046L47.4592 47.1674L49.1357 53.4239L47.6339 53.8263C46.2471 54.1979 45.4212 55.6284 45.7927 57.0152C45.9721 57.6852 46.4033 58.246 47.0068 58.5946C47.4096 58.8269 47.8557 58.9458 48.3071 58.9458C48.5323 58.9458 48.7588 58.9162 48.9817 58.8565L57.0157 56.7037C58.4024 56.3318 59.2283 54.9012 58.8567 53.5145ZM40.4251 13.1978L41.5969 12.8838L41.9845 14.3307C41.786 14.3584 41.5871 14.3971 41.3886 14.4503C41.1902 14.5035 40.9986 14.5694 40.8129 14.6447L40.4251 13.1978ZM39.5018 20.0385C39.0354 18.2974 40.0721 16.5015 41.8132 16.035C43.5538 15.5685 45.3503 16.6053 45.8167 18.3464L45.9551 18.8626L44.6077 19.2237C44.1701 19.3408 43.9104 19.7907 44.0276 20.2283C44.1259 20.5947 44.4573 20.8364 44.8195 20.8364C44.8898 20.8364 44.9612 20.8272 45.0322 20.8083L46.3796 20.4472L46.8986 22.3836L44.248 23.0939C43.8104 23.2111 43.5507 23.661 43.6679 24.0985C43.7663 24.465 44.0977 24.7067 44.4598 24.7067C44.5301 24.7067 44.6016 24.6976 44.6726 24.6786L47.3231 23.9683L47.842 25.9047L46.4947 26.2658C46.0571 26.383 45.7975 26.8329 45.9146 27.2705C46.013 27.6369 46.3444 27.8785 46.7066 27.8785C46.7769 27.8785 46.8483 27.8694 46.9193 27.8504L48.2666 27.4894L48.7854 29.4258L46.1348 30.1359C45.6973 30.2532 45.4376 30.703 45.5548 31.1406C45.653 31.5071 45.9845 31.7488 46.3467 31.7488C46.4169 31.7488 46.4884 31.7396 46.5594 31.7206L49.21 31.0105L49.7287 32.9467L48.3814 33.3077C47.9439 33.425 47.6842 33.8748 47.8014 34.3124C47.8997 34.6789 48.2311 34.9206 48.5933 34.9206C48.6636 34.9206 48.735 34.9114 48.806 34.8924L50.1533 34.5314L50.6721 36.4677L48.0216 37.1778C47.584 37.2951 47.3243 37.7449 47.4415 38.1825C47.5397 38.549 47.8712 38.7907 48.2334 38.7907C48.3037 38.7907 48.3751 38.7815 48.4461 38.7626L51.0967 38.0524L51.7839 40.6171L45.469 42.3091L39.5018 20.0385ZM43.5368 46.5197C43.2902 46.5858 43.0311 46.5511 42.807 46.4217C42.583 46.2923 42.4233 46.0853 42.3571 45.8385C42.2911 45.5919 42.3258 45.3328 42.4552 45.1087C42.5845 44.8847 42.7916 44.7249 43.0382 44.6589L55.0643 41.4365C55.1474 41.4143 55.2311 41.4036 55.3133 41.4036C55.7386 41.4036 56.1288 41.6878 56.2439 42.1176C56.31 42.3642 56.2752 42.6234 56.1458 42.8475C56.0164 43.0715 55.8095 43.2312 55.5628 43.2972L43.5368 46.5197ZM49.0441 46.7426L50.9048 46.2439L52.5813 52.5003L50.7206 52.999L49.0441 46.7426ZM56.591 55.1188L48.5571 57.2714C48.3103 57.3378 48.0513 57.3028 47.8271 57.1734C47.6032 57.044 47.4435 56.837 47.3774 56.5903C47.2399 56.0774 47.5455 55.5481 48.0585 55.4108L56.0924 53.2581C56.1739 53.2362 56.2569 53.2254 56.3395 53.2254C56.5065 53.2254 56.6722 53.2697 56.8221 53.3562C57.0461 53.4855 57.2058 53.6925 57.2719 53.9392C57.4096 54.4521 57.1039 54.9813 56.591 55.1188ZM17.6707 15.5075C18.2153 16.0521 18.972 16.3301 19.8712 16.3301C20.0018 16.3301 20.1356 16.3235 20.272 16.3118V18.3654C20.272 19.6235 21.158 20.7595 22.7666 21.5642C24.1948 22.2786 26.0752 22.672 28.0618 22.672C30.0485 22.672 31.9289 22.2786 33.3571 21.5642C34.9658 20.7595 35.8518 19.6235 35.8518 18.3654V14.9443C35.8518 13.6862 34.9657 12.5502 33.3571 11.7455C31.9527 11.0429 30.1104 10.6517 28.1604 10.6389C29.7178 8.16678 29.9661 5.76994 28.6873 4.49096L26.2696 2.07326C26.2691 2.0728 26.2687 2.07233 26.2683 2.07197C25.3786 1.1824 23.949 1.00557 22.2424 1.57393C20.7274 2.07865 19.1196 3.13018 17.7148 4.5349C16.3102 5.93963 15.2585 7.54756 14.7538 9.06244C14.1853 10.7689 14.3621 12.1987 15.2517 13.0883L17.6707 15.5075ZM21.9127 14.9443C21.9127 13.6858 24.5423 12.2783 28.0618 12.2783C28.8732 12.2783 29.6365 12.3539 30.3319 12.4843L23.2826 16.5542C22.4183 16.0765 21.9127 15.496 21.9127 14.9443ZM28.0618 21.0315C24.5425 21.0315 21.9127 19.624 21.9127 18.3655V17.6378C22.1695 17.8176 22.4539 17.9869 22.7666 18.1433C24.1948 18.8577 26.0752 19.2511 28.0618 19.2511C30.0485 19.2511 31.9289 18.8577 33.3571 18.1433C33.6697 17.9869 33.9543 17.8176 34.2111 17.6378V18.3655C34.2111 19.624 31.5813 21.0315 28.0618 21.0315ZM34.2111 14.9443C34.2111 16.2028 31.5814 17.6103 28.0618 17.6103C27.0462 17.6103 26.1054 17.4926 25.2797 17.2956L32.4684 13.1451C33.5583 13.6537 34.2111 14.3175 34.2111 14.9443ZM26.0522 10.7771C24.8284 10.9495 23.7006 11.2783 22.7667 11.7455C21.2802 12.489 20.4127 13.5157 20.2891 14.66C19.6386 14.7457 19.1228 14.6394 18.8309 14.3475L18.3168 13.8334C18.6253 13.779 18.9463 13.6969 19.2776 13.5865C20.7926 13.0817 22.4004 12.0302 23.8052 10.6255C25.2098 9.22076 26.2615 7.61283 26.7662 6.09795C26.8767 5.76631 26.9582 5.44557 27.0127 5.13678L27.5271 5.65123C28.2382 6.36244 27.8611 8.49643 26.0522 10.7771ZM25.1079 3.23213L25.1088 3.23307C25.9972 4.12393 25.1329 6.97768 22.645 9.46545C21.9268 10.1836 21.1784 10.7656 20.4552 11.2101L22.6054 3.18572C22.6571 3.16697 22.7092 3.14776 22.7606 3.13065C23.8312 2.77393 24.6868 2.81096 25.1079 3.23213ZM16.3103 9.58112C16.736 8.30319 17.6467 6.92307 18.8748 5.69506C19.4353 5.13444 20.0277 4.64096 20.6275 4.22858L18.5188 12.0982C17.5698 12.3714 16.8019 12.3185 16.4118 11.9284C15.9905 11.5072 15.9536 10.6516 16.3103 9.58112Z" fill="#698CF0"/>
</svg>
