<svg width="60" height="60" viewBox="0 0 60 60" fill="none" xmlns="http://www.w3.org/2000/svg">
<path fill-rule="evenodd" clip-rule="evenodd" d="M12.7892 30.6365C12.7469 30.4077 12.7247 30.1708 12.7247 29.9289C12.7247 27.784 14.4655 26.0432 16.6104 26.0432C18.7554 26.0432 20.4971 27.784 20.4971 29.9289C20.4971 32.0739 18.7554 33.8156 16.6104 33.8156C16.2435 33.8156 15.8877 33.7652 15.5511 33.6695C15.0924 33.5394 14.6147 33.8065 14.4846 34.2652C14.3546 34.7238 14.6217 35.2015 15.0803 35.3316C15.5672 35.4687 16.0802 35.5433 16.6104 35.5433C19.7089 35.5433 22.2248 33.0274 22.2248 29.9289C22.2248 26.8314 19.7089 24.3156 16.6104 24.3156C13.5129 24.3156 10.9971 26.8314 10.9971 29.9289C10.9971 30.2777 11.0293 30.6183 11.0898 30.949C11.1765 31.4177 11.627 31.7281 12.0958 31.6424C12.5645 31.5557 12.8749 31.1052 12.7892 30.6365Z" fill="#698CF0"/>
<path d="M13.163 34.1409C13.6402 34.1409 14.0271 33.754 14.0271 33.2768C14.0271 32.7995 13.6402 32.4126 13.163 32.4126C12.6857 32.4126 12.2988 32.7995 12.2988 33.2768C12.2988 33.754 12.6857 34.1409 13.163 34.1409Z" fill="#698CF0"/>
<path fill-rule="evenodd" clip-rule="evenodd" d="M29.9981 24.3156C26.9006 24.3156 24.3848 26.8314 24.3848 29.9289C24.3848 33.0274 26.9006 35.5433 29.9981 35.5433C33.0966 35.5433 35.6125 33.0274 35.6125 29.9289C35.6125 26.8314 33.0966 24.3156 29.9981 24.3156ZM29.9981 26.0432C32.1431 26.0432 33.8848 27.784 33.8848 29.9289C33.8848 32.0739 32.1431 33.8156 29.9981 33.8156C27.8532 33.8156 26.1124 32.0739 26.1124 29.9289C26.1124 27.784 27.8532 26.0432 29.9981 26.0432Z" fill="#698CF0"/>
<path fill-rule="evenodd" clip-rule="evenodd" d="M46.3835 27.4564C46.9389 28.1287 47.2725 28.9905 47.2725 29.9289C47.2725 32.0739 45.5308 33.8156 43.3858 33.8156C41.2409 33.8156 39.5001 32.0739 39.5001 29.9289C39.5001 27.784 41.2409 26.0432 43.3858 26.0432C43.7537 26.0432 44.1095 26.0936 44.4462 26.1894C44.9048 26.3194 45.3826 26.0523 45.5126 25.5937C45.6426 25.135 45.3755 24.6572 44.9169 24.5272C44.4301 24.3901 43.917 24.3156 43.3858 24.3156C40.2883 24.3156 37.7725 26.8314 37.7725 29.9289C37.7725 33.0274 40.2883 35.5433 43.3858 35.5433C46.4843 35.5433 49.0002 33.0274 49.0002 29.9289C49.0002 28.5722 48.5174 27.3273 47.715 26.3567C47.4116 25.9888 46.8663 25.9374 46.4994 26.2408C46.1315 26.5442 46.0801 27.0895 46.3835 27.4564Z" fill="#698CF0"/>
<rect x="0.75" y="0.75" width="58.5" height="58.5" rx="11.25" stroke="#698CF0" stroke-width="1.5"/>
</svg>
