<svg width="54" height="54" viewBox="0 0 54 54" fill="none" xmlns="http://www.w3.org/2000/svg">
<path d="M27.0569 40.4338C25.8698 38.0569 23.4798 36.5807 20.8199 36.5807C20.0195 36.5807 19.3244 36.038 19.1302 35.2611L19.0379 34.8901C18.2593 31.7834 15.48 29.6129 12.2774 29.6129H11.3229C9.88228 29.6129 8.70996 30.7852 8.70996 32.2258C8.70996 33.6664 9.88228 34.8387 11.3229 34.8387H12.2774C13.0779 34.8387 13.7729 35.3813 13.9671 36.1582L14.0594 36.5293C14.8381 39.636 17.6191 41.8065 20.8251 41.8065C21.4897 41.8065 22.0863 42.1758 22.3833 42.7698L22.9215 43.8463C23.3666 44.7373 24.262 45.2903 25.2592 45.2903C25.6625 45.2903 26.0666 45.1954 26.4272 45.0142C27.0508 44.7024 27.5159 44.165 27.7371 43.504C27.9575 42.842 27.9078 42.1331 27.5952 41.5086L27.0569 40.4338ZM22.4826 40.4896C22.1516 40.311 21.7936 40.1838 21.4148 40.1194L22.2178 38.5133C22.9033 38.7015 23.5364 39.0263 24.0852 39.4662L22.4826 40.4896ZM20.3835 38.286L19.5779 39.8973C18.821 39.7118 18.1234 39.373 17.5311 38.8922L18.9935 37.7957C19.4107 38.0526 19.8801 38.2224 20.3835 38.286ZM15.75 36.1069L15.7282 36.0198L17.1148 34.6332C17.2036 34.8535 17.2881 35.0774 17.3473 35.3134L17.4397 35.6844C17.5154 35.9867 17.6383 36.2636 17.7837 36.5258L16.3797 37.5788C16.1036 37.1294 15.8833 36.639 15.75 36.1069ZM10.4519 32.2258C10.4519 31.7459 10.843 31.3549 11.3229 31.3549H12.1938V33.0968H11.3229C10.843 33.0968 10.4519 32.7057 10.4519 32.2258ZM13.9358 33.5166V31.6292C14.8041 31.9192 15.5741 32.4314 16.1768 33.109L14.9391 34.3466C14.6569 34.0096 14.3207 33.7248 13.9358 33.5166ZM26.0849 42.9527C26.0109 43.1765 25.8593 43.3516 25.6485 43.4569C25.2313 43.6651 24.6879 43.4848 24.4797 43.0676L23.9414 41.992C23.8953 41.8988 23.8387 41.8134 23.7847 41.7255L25.2505 40.7892C25.3367 40.9277 25.4264 41.0644 25.5005 41.2133L26.0387 42.2881C26.1415 42.4963 26.1581 42.7323 26.0849 42.9527Z" fill="#698CF0"/>
<path d="M5.22559 48.7741H31.3546V26.1289H5.22559V48.7741ZM6.96752 27.8708H29.6127V47.0321H6.96752V27.8708Z" fill="#698CF0"/>
<path d="M8.70996 43.5485H15.6777V45.2904H8.70996V43.5485Z" fill="#698CF0"/>
<path d="M8.70996 40.0645H13.9358V41.8064H8.70996V40.0645Z" fill="#698CF0"/>
<path d="M53.6551 17.4568L47.0323 5.8651V1.74194C47.0323 0.781258 46.251 0 45.2903 0H36.5806C35.62 0 34.8387 0.781258 34.8387 1.74194V5.8651L34.391 6.6481C33.3319 5.76145 31.9697 5.22581 30.4839 5.22581H22.9535C20.446 5.22581 18.2241 6.72997 17.2922 9.05806L15.6774 13.0959V10.4516C15.6774 9.49094 14.8962 8.70968 13.9355 8.70968H5.22581C4.26513 8.70968 3.48387 9.49094 3.48387 10.4516V14.5007L0.954581 17.6624C0.338806 18.4323 0 19.3982 0 20.3833V49.6452C0 52.0464 1.95358 54 4.35484 54H49.6452C52.0464 54 54 52.0464 54 49.6452V18.7528C54 18.2982 53.8807 17.8496 53.6551 17.4568ZM51.6284 17.4194H36.5806V11.3226C36.5806 10.1093 36.2209 8.98142 35.6078 8.03032L36.2148 6.96774H45.6561L51.6284 17.4194ZM36.5806 41.7106C37.6885 42.8429 39.2301 43.5484 40.9355 43.5484C44.2974 43.5484 47.0323 40.8135 47.0323 37.4516C47.0323 32.8276 41.8186 26.6917 41.5965 26.433L40.9355 25.6613L40.2744 26.433C40.1377 26.5924 38.1188 28.9727 36.5806 31.8548V24.3871H48.7742V45.2903H36.5806V41.7106ZM36.5806 37.4516C36.5806 34.3623 39.5733 30.1477 40.9355 28.3892C42.2977 30.1468 45.2903 34.3571 45.2903 37.4516C45.2903 39.8529 43.3367 41.8064 40.9355 41.8064C38.5342 41.8064 36.5806 39.8529 36.5806 37.4516ZM45.2903 1.74194V5.22581H36.5806V1.74194H45.2903ZM13.9355 10.4516V13.9355H5.22581V10.4516H13.9355ZM2.31416 18.7511L4.7729 15.6774H14.445L17.1633 18.3957C17.6571 18.8895 18.3138 19.1613 19.0124 19.1613H33.0968V11.3226C33.0968 9.882 31.9245 8.70968 30.4839 8.70968H22.9535C21.8787 8.70968 20.9267 9.35419 20.527 10.3523L17.9715 16.74L16.632 15.4005L18.9096 9.70519C19.5759 8.04252 21.1619 6.96774 22.9535 6.96774H30.4839C32.8851 6.96774 34.8387 8.92132 34.8387 11.3226V20.9032H1.74194V20.3833C1.74194 19.7927 1.94487 19.2127 2.31416 18.7511ZM19.5767 17.4194L22.1452 10.9995C22.2776 10.6667 22.5955 10.4516 22.9535 10.4516H30.4839C30.9638 10.4516 31.3548 10.8427 31.3548 11.3226V17.4194H19.5767ZM4.35484 52.2581C2.91426 52.2581 1.74194 51.0857 1.74194 49.6452V22.6452H34.8387V49.6452C34.8387 51.0857 33.6664 52.2581 32.2258 52.2581H4.35484ZM49.6452 52.2581H35.687C36.2401 51.5282 36.5806 50.6294 36.5806 49.6452V47.0323H50.5161V22.6452H36.5806V19.1613H52.2581V49.6452C52.2581 51.0857 51.0857 52.2581 49.6452 52.2581Z" fill="#698CF0"/>
</svg>
