<svg width="60" height="60" viewBox="0 0 60 60" fill="none" xmlns="http://www.w3.org/2000/svg">
<g clip-path="url(#clip0_29_755)">
<path d="M36.6133 46.5632C35.9324 46.5045 35.2436 46.391 34.5659 46.2261C31.4632 45.4702 28.8312 43.3568 27.5226 40.5746C26.2168 37.7978 26.5883 35.4335 27.1253 32.414C27.4991 30.3116 27.8857 28.1377 27.4466 25.8748C27.376 25.5113 27.2885 25.1538 27.1854 24.803C28.6359 26.6217 29.7776 28.7258 30.2912 30.4209C30.4002 30.7807 30.7308 31.0127 31.0883 31.0127C31.6463 31.0127 32.0482 30.4731 31.886 29.9377C30.8666 26.5733 27.7611 21.9661 24.3024 20.0065C23.0431 18.8071 21.515 17.9814 19.8377 17.6035C18.4012 17.2794 16.9484 17.3366 16.6645 17.407C16.414 17.4692 16.1696 17.54 15.9303 17.6176C16.718 17.0642 17.5803 16.6156 18.4868 16.3051C20.6902 15.5507 24.1904 15.2564 28.3541 18.1413C28.7325 18.4034 29.2515 18.3093 29.5135 17.9309C29.7754 17.5526 29.6813 17.0336 29.3031 16.7716C24.5672 13.4905 20.5135 13.8497 17.9468 14.7287C14.5049 15.9075 11.6002 18.8058 10.5195 22.1283C10.3494 22.4342 10.1896 22.753 10.041 23.0859C9.51858 24.2563 9.12843 25.6085 8.87093 27.1292C7.30412 27.3832 5.97404 28.1203 5.09877 29.1436C3.6205 26.2147 3.54141 23.0619 3.75348 20.8715C4.11774 17.1091 5.56479 13.8283 7.82824 11.6331C7.92955 11.5347 8.03931 11.4325 8.16373 11.3207C8.50589 11.013 8.53388 10.4862 8.22616 10.1441C7.91844 9.80192 7.39166 9.77393 7.0495 10.0816C6.90897 10.208 6.78389 10.3245 6.66769 10.4375C4.12129 12.9071 2.49728 16.5556 2.09502 20.7111C1.75731 24.2005 2.29143 27.8463 4.1544 30.8661C4.04242 31.2515 3.98299 31.6543 3.98299 32.0691C3.98299 34.7113 6.45262 36.8833 9.58068 37.0894C10.5926 39.4139 12.2373 41.4402 14.1931 42.9589V49.4211C14.1931 49.4824 14.1519 49.5378 14.0927 49.5558C11.8766 50.227 9.05478 50.8426 6.8251 52.2328C4.61498 53.6107 3.49431 55.4964 3.49431 57.8371V58.3981C3.49431 59.2814 4.21294 60.0001 5.09622 60.0001H34.8444C35.7277 60.0001 36.4463 59.2814 36.4463 58.3981V57.8371C36.4463 55.4964 35.3257 53.6107 33.1155 52.2328C31.3109 51.1076 29.0962 50.4818 27.1423 49.9297C26.6846 49.8003 26.2521 49.6782 25.8477 49.5556C25.7887 49.5378 25.7475 49.4824 25.7475 49.4211V42.9545C26.0205 42.7429 26.289 42.5201 26.5514 42.2872C28.1903 45.0213 30.9654 47.0641 34.172 47.8452C34.9319 48.0302 35.7052 48.1575 36.4703 48.2235C36.9276 48.2632 37.3324 47.9242 37.3721 47.465C37.4114 47.0066 37.0718 46.6028 36.6133 46.5632ZM5.64933 32.0691C5.64933 30.6167 6.90109 29.3405 8.64064 28.8807C8.54688 29.8511 8.49889 30.8783 8.49889 31.9618C8.49889 33.1267 8.65563 34.2382 8.95769 35.3328C7.05695 34.9563 5.64933 33.6358 5.64933 32.0691ZM25.3648 51.1504C27.4525 51.783 30.2286 52.3965 32.2337 53.6467C33.9708 54.7297 34.7799 56.0613 34.7799 57.837V58.3336H5.16065V57.837C5.16065 56.0613 5.96971 54.7297 7.70682 53.6467C9.71232 52.3963 12.4867 51.7832 14.5755 51.1506C15.3436 50.9182 15.8595 50.2231 15.8595 49.4211V44.0814C17.314 44.9188 18.7744 45.3993 19.9699 45.3993C21.175 45.3993 22.6335 44.9119 24.081 44.0769V49.421C24.0811 50.2231 24.597 50.9181 25.3648 51.1504ZM19.9699 43.7331C16.8741 43.7331 10.1652 38.9968 10.1652 31.9619C10.1652 28.9644 10.5354 25.4853 12.0144 22.8664C12.0191 22.8578 12.0245 22.8499 12.0292 22.8412C13.1075 20.8251 14.7933 19.6059 16.998 19.0416C21.4627 18.7385 24.9561 21.7927 25.8109 26.1924C26.1908 28.151 25.8477 30.08 25.4847 32.1222C25.2025 33.7091 24.9108 35.3497 24.9752 37.0351C25.0238 38.3108 25.2926 39.5541 25.7759 40.7392C24.2832 42.1593 21.8716 43.7331 19.9699 43.7331Z" fill="#698CF0"/>
<path d="M54.4651 35.22C54.3197 35.1969 53.8881 35.126 53.8177 35.1144C57.795 30.6229 59.6247 24.1748 58.5967 18.2257C58.5062 17.7018 58.1588 17.2674 57.6676 17.0638C57.1802 16.8617 56.6322 16.9222 56.2036 17.2241C52.9616 19.4933 48.4917 18.5597 45.1358 17.2672V6.94399C45.1358 5.32075 43.8151 4.00012 42.1919 4.00012C40.5686 4.00012 39.2479 5.32075 39.2479 6.94399V14.3937C38.4054 13.9299 37.5657 13.4568 36.7452 12.9937C35.0923 12.0607 33.3833 11.0959 31.6556 10.2166C26.9051 7.79905 22.9332 6.55974 19.1561 6.31623C16.081 6.11827 13.1003 6.63639 10.5354 7.81471C10.1172 8.00679 9.93405 8.50147 10.126 8.91961C10.3181 9.33764 10.8128 9.52105 11.2309 9.32897C13.5457 8.26563 16.2492 7.79894 19.0488 7.97913C22.5923 8.20753 26.358 9.39041 30.8999 11.7016C32.5954 12.5646 34.2885 13.5204 35.926 14.4448C37.0104 15.057 38.1277 15.6861 39.2479 16.2913V17.7312C39.2479 18.6348 38.7958 19.4674 38.0384 19.9587C35.8542 21.3751 34.5503 23.7726 34.5503 26.3721V29.5648C34.5503 30.3082 35.155 30.913 35.8984 30.913H36.4422V34.5386C36.4422 34.9988 36.8152 35.3718 37.2754 35.3718C37.7356 35.3718 38.1086 34.9988 38.1086 34.5386V30.913H39.7194V34.5386C39.7194 34.9988 40.0923 35.3718 40.5525 35.3718C41.0128 35.3718 41.3857 34.9988 41.3857 34.5386V30.913H42.9976V34.5386C42.9976 34.9988 43.3705 35.3718 43.8308 35.3718C44.291 35.3718 44.664 34.9988 44.664 34.5386V30.913H46.2748V34.5386C46.2748 34.9988 46.6477 35.3718 47.1079 35.3718C47.5682 35.3718 47.9411 34.9988 47.9411 34.5386V30.913H48.4853C49.2286 30.913 49.8335 30.3082 49.8335 29.5648V26.3721C49.8335 23.7726 48.5295 21.3751 46.3454 19.9586C46.0346 19.7569 45.7762 19.4972 45.5783 19.1993C50.2137 20.7694 54.1294 20.6061 56.9877 18.7063C57.8693 24.1824 56.1325 30.0888 52.4311 34.165C52.0482 34.5851 51.9267 35.1784 52.114 35.7135C52.3005 36.2465 52.7634 36.633 53.3225 36.7222C53.4678 36.7453 53.9127 36.8185 53.9905 36.8312C50.9045 40.6222 46.0614 45.2825 40.2751 46.3739C39.823 46.4592 39.5255 46.8949 39.6108 47.347C39.6863 47.7471 40.0359 48.0259 40.4286 48.0259C40.4798 48.0259 40.5319 48.0211 40.5839 48.0113C46.9574 46.8092 52.1744 41.7421 55.4285 37.703C55.7774 37.2702 55.8654 36.7025 55.6642 36.1843C55.462 35.6645 55.0121 35.3037 54.4651 35.22ZM48.1671 26.3721V29.2467C44.1952 29.2467 40.2078 29.2467 36.2167 29.2467V26.3721C36.2167 24.3396 37.2367 22.4646 38.9452 21.3566C40.1782 20.557 40.9142 19.2017 40.9142 17.7312V6.94399C40.9142 6.23958 41.4874 5.66646 42.1919 5.66646C42.8963 5.66646 43.4694 6.23958 43.4694 6.94399C43.4694 6.94399 43.473 17.8653 43.4742 17.8846C43.5236 19.2954 44.2486 20.5849 45.4385 21.3565C47.147 22.4646 48.1671 24.3396 48.1671 26.3721Z" fill="#698CF0"/>
<path d="M22.0515 36.4931C20.6514 37.1577 19.2901 37.1577 17.8899 36.4931C17.474 36.2958 16.9773 36.4726 16.7799 36.8883C16.5826 37.304 16.7595 37.8009 17.1753 37.9983C18.1028 38.4387 19.0368 38.6589 19.9707 38.6589C20.9047 38.6589 21.8387 38.4387 22.7662 37.9983C23.1819 37.801 23.3589 37.304 23.1616 36.8883C22.9641 36.4726 22.467 36.2958 22.0515 36.4931Z" fill="#698CF0"/>
<path d="M15.8136 28.7433C15.3534 28.7433 14.9805 29.1163 14.9805 29.5765V30.7823C14.9805 31.2425 15.3534 31.6155 15.8136 31.6155C16.2739 31.6155 16.6468 31.2425 16.6468 30.7823V29.5765C16.6468 29.1163 16.2739 28.7433 15.8136 28.7433Z" fill="#698CF0"/>
<path d="M17.0316 26.9663C17.1642 27.0444 17.3098 27.0815 17.4533 27.0815C17.7388 27.0815 18.0169 26.9347 18.1723 26.6707C18.4056 26.2741 18.2731 25.7634 17.8766 25.5302C16.5273 24.7365 15.1011 24.7365 13.7517 25.5302C13.3551 25.7634 13.2227 26.2741 13.456 26.6707C13.6894 27.0673 14.1998 27.1996 14.5965 26.9664C15.4271 26.4777 16.2011 26.4777 17.0316 26.9663Z" fill="#698CF0"/>
</g>
<defs>
<clipPath id="clip0_29_755">
<rect width="60" height="60" fill="white"/>
</clipPath>
</defs>
</svg>
