<svg width="60" height="60" viewBox="0 0 60 60" fill="none" xmlns="http://www.w3.org/2000/svg">
<path d="M43.2446 40.1387H44.9459V41.8399H43.2446V40.1387Z" fill="#698CF0"/>
<path d="M43.2446 43.5409H44.9459V45.2421H43.2446V43.5409Z" fill="#698CF0"/>
<path d="M35.3804 53.4869H37.0815V58.9998H35.3804V53.4869Z" fill="#698CF0"/>
<path d="M59.0697 28.1217V24.8396C59.0697 23.5319 58.0807 22.4513 56.8114 22.3053V18.426H54.8806V16.6966H57.4323V14.9954H50.6277V16.6966H53.1794V18.426H51.2487V22.2878H49.5047C49.2178 19.5156 47.0708 17.0225 44.3797 16.3114V6.35837C44.1792 -0.27872 34.8891 -0.96519 33.6736 5.50779H27.816V7.20894H33.6058V11.2302C33.6058 14.1636 35.5529 16.6501 38.2224 17.4669C36.4982 18.761 35.3807 20.8216 35.3807 23.1386V32.2368L31.8764 33.9865L21.5008 22.3912H15.7642V27.4947H19.2195L27.7675 37.0459C26.9234 38.521 26.7853 40.3706 27.5626 42.0215L27.9249 42.7911L31.4301 41.1406L35.3807 45.5549V51.786H37.0818V47.0783C37.7058 47.3447 38.4618 47.3377 39.0791 47.0612C39.1817 47.1595 39.2845 47.2569 39.3872 47.3527V58.9999H41.0884V48.8207C42.9809 50.3226 44.8626 51.3856 46.6082 51.9562V58.9999H48.3094V52.3602C51.3924 52.8626 54.2157 51.2394 54.3126 47.8191L54.3129 43.3108H56.518C57.925 43.3108 59.0697 42.1662 59.0697 40.7591V29.823H57.3686V40.7591C57.3686 41.2282 56.9871 41.6097 56.518 41.6097H54.313L54.3132 35.0705H52.612V41.6097H49.5569V23.9892H56.518C56.9871 23.9892 57.3686 24.3707 57.3686 24.8398V28.1218H59.0697V28.1217ZM52.9498 20.1272H55.1102V22.2879H52.9498V20.1272ZM46.7573 50.2108C44.936 49.5505 42.7449 48.2107 40.3231 45.8978C40.7995 44.9801 40.6851 43.8301 39.9611 43.0214L36.2477 38.8722L43.1678 35.6139C43.221 35.5889 43.2734 35.5629 43.3255 35.5361C44.2229 37.277 45.9016 38.4701 47.8557 38.7409V45.1457C47.8557 46.6198 47.0496 49.2908 46.7573 50.2108ZM41.4877 31.089L41.44 22.3163C41.4379 21.9376 41.5836 21.5808 41.8498 21.3116C42.72 20.4173 44.2765 21.0499 44.2753 22.3008L44.3229 31.0941C44.33 32.3638 43.592 33.5338 42.4432 34.0747L35.8748 37.1674L34.4236 34.6159L41.4877 31.089ZM42.6786 12.0265V16.0501H41.2047C40.1763 15.0999 39.9833 13.2239 40.0112 12.0265H42.6786ZM38.9928 2.67254C40.7324 2.67254 42.1933 3.88433 42.5784 5.50779H35.4071C35.7922 3.88433 37.2532 2.67254 38.9928 2.67254ZM42.6786 7.20894V10.3253H35.3069V7.20894H42.6786ZM35.374 12.0265H38.3125C38.2928 13.0134 38.3894 14.5849 39.0456 15.9263C37.1609 15.4924 35.6954 13.9512 35.374 12.0265ZM42.4688 17.7515C45.3653 17.6923 47.9151 20.2414 47.8557 23.1385V37.0169C46.4546 36.7437 45.2785 35.8046 44.7067 34.4805C45.5428 33.5698 46.031 32.3606 46.024 31.0848L45.9763 22.2914C45.9674 19.533 42.5702 18.1477 40.6403 20.1151C40.0544 20.7073 39.7344 21.4922 39.7388 22.3252L39.7573 25.7319H37.0818V23.1383C37.0818 20.1682 39.4985 17.7515 42.4688 17.7515ZM37.0818 27.4333H39.7666L39.7807 30.0398L37.0818 31.3874V27.4333ZM28.8518 35.7066L26.565 33.1513L27.832 32.0176L30.2987 34.7742C29.7707 35.0201 29.267 35.3285 28.8518 35.7066ZM17.4653 25.7935V24.0924H20.7402L26.6977 30.75L25.4305 31.8839L19.9799 25.7935H17.4653ZM30.8664 36.3919L32.8993 35.3769L34.3311 37.8942L28.829 40.4849C28.4857 38.8519 29.2923 37.133 30.8664 36.3919ZM37.4263 45.2896L33.0363 40.3843L34.6416 39.6284L38.6936 44.1559C38.9942 44.4918 38.98 45.0045 38.6612 45.3234C38.332 45.6667 37.7357 45.6523 37.4263 45.2896ZM52.6122 43.3108V47.7738C52.5627 49.985 50.869 51.0712 48.4036 50.6487C48.7383 49.5898 49.557 46.8282 49.557 45.1458V43.3108H52.6122Z" fill="#698CF0"/>
<path d="M1.06885 17.2905L1.70333 15.712L4.60334 16.8776L3.96886 18.4562L1.06885 17.2905Z" fill="#698CF0"/>
<path d="M5.31543 18.9954L5.94996 17.4167L12.873 20.1994L12.2385 21.778L5.31543 18.9954Z" fill="#698CF0"/>
<path d="M1.07373 32.672L7.07834 30.2585L7.71287 31.8372L1.70826 34.2507L1.07373 32.672Z" fill="#698CF0"/>
<path d="M8.42578 29.7161L12.2433 28.1816L12.8778 29.7603L9.06031 31.2947L8.42578 29.7161Z" fill="#698CF0"/>
<path d="M1 24.0925H7.5315V25.7937H1V24.0925Z" fill="#698CF0"/>
<path d="M8.95166 24.0925H12.268V25.7937H8.95166V24.0925Z" fill="#698CF0"/>
<path d="M11.6416 48.2256C11.0925 48.5458 10.6327 48.9523 10.2501 49.3853V47.8682C13.2541 44.1934 11.9884 40.5478 9.19175 38.0774C6.51153 40.6622 5.40431 44.354 8.54894 47.8886V49.4619C6.28301 46.7176 2.54196 47.403 1.12207 47.8575C1.78529 50.8395 3.86217 54.1484 8.54894 53.6169V58.9997H10.2501V53.6236C14.9243 54.1181 16.956 50.7892 17.6102 47.8575C16.753 47.66 14.3167 46.7926 11.6416 48.2256ZM5.23998 51.4007C4.2853 50.8441 3.67924 49.8693 3.33912 49.1502C5.59983 48.9615 7.187 49.8889 8.13488 51.9459C7.34124 52.0041 6.19455 51.9571 5.23998 51.4007ZM9.24687 40.6449C10.5903 42.4799 10.6289 44.3076 9.3698 46.193C8.02828 44.3648 7.98926 42.5276 9.24687 40.6449ZM13.4926 51.4007C12.5379 51.9572 11.3912 52.0041 10.5977 51.9459C11.5469 49.8856 13.1368 48.9615 15.3933 49.1502C15.0531 49.8695 14.4472 50.8441 13.4926 51.4007Z" fill="#698CF0"/>
<path d="M23.1494 45.8115L22.5326 45.2168C19.8521 47.8017 18.745 51.4932 21.8898 55.028V59H23.5909V55.0075C26.3446 51.6691 25.5096 48.2102 23.1494 45.8115ZM22.5886 47.7825C23.9302 49.6105 23.9692 51.4476 22.7115 53.3306C21.3681 51.4953 21.3299 49.6679 22.5886 47.7825Z" fill="#698CF0"/>
</svg>
