<svg width="35" height="54" viewBox="0 0 35 54" fill="none" xmlns="http://www.w3.org/2000/svg">
<path d="M17.4023 38.707C16.821 38.707 16.3477 39.1804 16.3477 39.7617C16.3477 40.343 16.821 40.8164 17.4023 40.8164C17.9837 40.8164 18.457 40.343 18.457 39.7617C18.457 39.1804 17.9837 38.707 17.4023 38.707Z" fill="#698CF0"/>
<path d="M29.0039 8.7296V1.05469C29.0039 0.472137 28.5318 0 27.9492 0H6.85547C6.27292 0 5.80078 0.472137 5.80078 1.05469V8.7296C2.51971 9.2384 0 12.0824 0 15.5039V47.1445C0 50.9245 3.07549 54 6.85547 54H27.9492C31.7292 54 34.8047 50.9245 34.8047 47.1445V15.5039C34.8047 12.0824 32.285 9.2384 29.0039 8.7296ZM7.91016 2.10938H26.8945V8.64844H7.91016V2.10938ZM2.10938 15.5039C2.10938 12.887 4.23853 10.7578 6.85547 10.7578H27.9492C30.5662 10.7578 32.6953 12.887 32.6953 15.5039V17.6133H2.10938V15.5039ZM32.6953 47.1445C32.6953 49.7615 30.5662 51.8906 27.9492 51.8906H6.85547C4.23853 51.8906 2.10938 49.7615 2.10938 47.1445V45.0352H32.6953V47.1445ZM2.10938 42.9258V40.8164H13.1836C13.7649 40.8164 14.2383 40.343 14.2383 39.7617C14.2383 39.1804 13.7649 38.707 13.1836 38.707H2.10938V23.9414H13.1836C13.7649 23.9414 14.2383 23.468 14.2383 22.8867C14.2383 22.3054 13.7649 21.832 13.1836 21.832H2.10938V19.7227H32.6953V21.832H21.6211C21.0398 21.832 20.5664 22.3054 20.5664 22.8867C20.5664 23.468 21.0398 23.9414 21.6211 23.9414H32.6953V38.707H21.6211C21.0398 38.707 20.5664 39.1804 20.5664 39.7617C20.5664 40.343 21.0398 40.8164 21.6211 40.8164H32.6953V42.9258H2.10938Z" fill="#698CF0"/>
<path d="M10.7207 27.7351C10.7207 27.4446 10.5856 27.0796 10.2448 27.0796C10.2448 27.0796 5.36279 27.0796 5.33766 27.0796C4.9953 27.0796 4.86182 27.4454 4.86182 27.7351C4.86182 28.0247 4.992 28.4021 5.33766 28.4021H7.04288V35.082C7.04288 35.4524 7.50719 35.5603 7.79723 35.5603C8.06749 35.5603 8.55116 35.4425 8.55116 35.0824V28.4021H10.2448C10.579 28.4021 10.7207 28.0132 10.7207 27.7351Z" fill="#698CF0"/>
<path d="M17.0304 34.9336C17.0304 34.9184 17.0226 34.8797 17.0069 34.8175C17.0069 34.8175 14.783 27.5694 14.7682 27.5203C14.6483 27.1298 14.1502 27.0099 13.7934 27.0099C13.4605 27.0099 12.9484 27.0972 12.8306 27.4697L10.589 34.7668C10.5737 34.8327 10.5659 34.8739 10.5659 34.8904C10.5647 35.365 11.2667 35.5603 11.6346 35.5603C11.9568 35.5603 12.1484 35.4602 12.2097 35.2595L12.6419 33.7154H15.1274L15.5683 35.2587C15.6222 35.4597 15.7928 35.5603 16.0787 35.5603C16.4153 35.5603 17.0304 35.3514 17.0304 34.9336ZM12.9732 32.5322L13.9702 28.9705L14.9795 32.5322H12.9732Z" fill="#698CF0"/>
<path d="M23.1409 35.3638C23.2262 35.2279 23.2616 35.0458 23.2616 34.8991C23.2616 34.6416 23.1454 34.2375 22.8093 34.2375H19.9785C19.9785 34.2375 19.9785 27.5987 19.9785 27.5439C19.9785 27.1678 19.5163 27.0796 19.2242 27.0796C18.9321 27.0796 18.4702 27.1686 18.4702 27.5435V35.0841C18.4702 35.4207 18.8509 35.5603 19.1315 35.5603H22.8089C22.9609 35.5603 23.0688 35.4784 23.1409 35.3638Z" fill="#698CF0"/>
<path d="M25.0677 34.986C25.5588 35.4153 26.2027 35.63 26.9991 35.63C27.8189 35.63 28.4859 35.4211 29.0005 35.0033C29.5147 34.5856 29.7722 34.029 29.7722 33.3327C29.7722 32.8272 29.5159 32.5903 29.0063 32.5903C28.5346 32.5903 28.287 32.7489 28.2639 33.0662C28.228 33.8073 27.8548 34.3071 27.0802 34.3071C26.2526 34.3071 25.8389 33.8625 25.8389 32.9731V29.7365C25.8389 28.847 26.2451 28.4021 27.0572 28.4021C27.7761 28.4021 28.2087 28.8462 28.2639 29.5507C28.2713 29.8679 28.523 30.0265 29.0178 30.0265C29.5159 30.0265 29.7722 29.7979 29.7722 29.2841C29.7722 28.6188 29.5147 28.0853 29.0005 27.6827C28.4859 27.2806 27.8231 27.0796 27.011 27.0796C26.2142 27.0796 25.5683 27.2942 25.0735 27.7235C24.5787 28.1528 24.3311 28.8239 24.3311 29.7365V32.9731C24.3311 33.8856 24.5766 34.5567 25.0677 34.986Z" fill="#698CF0"/>
<path d="M17.4023 21.832C16.821 21.832 16.3477 22.3054 16.3477 22.8867C16.3477 23.468 16.821 23.9414 17.4023 23.9414C17.9837 23.9414 18.457 23.468 18.457 22.8867C18.457 22.3054 17.9837 21.832 17.4023 21.832Z" fill="#698CF0"/>
</svg>
