<svg width="60" height="60" viewBox="0 0 60 60" fill="none" xmlns="http://www.w3.org/2000/svg">
<g clip-path="url(#clip0_29_773)">
<path d="M24.4677 59.1176C26.303 59.1176 28.1471 58.4206 29.5412 57.0176L57.0177 29.5411C58.3677 28.1823 59.1177 26.3823 59.1177 24.4676C59.1177 22.5529 58.3677 20.7441 57.0177 19.3941L40.6147 2.99115C39.2559 1.63232 37.4559 0.882324 35.5324 0.882324C33.6177 0.882324 31.8089 1.63232 30.4589 2.98232L14.7089 18.7323C14.3647 19.0764 14.3647 19.6323 14.7089 19.9764C15.053 20.3206 15.6089 20.3206 15.953 19.9764L31.703 4.23527C32.7265 3.21174 34.0941 2.64703 35.5324 2.64703C36.9794 2.64703 38.3383 3.21174 39.3618 4.23527L55.7647 20.6382C56.7883 21.6617 57.353 23.0206 57.353 24.4676C57.353 25.9147 56.7883 27.2735 55.7647 28.297L28.2971 55.7647C27.2736 56.7882 25.9147 57.3529 24.4677 57.3529C23.0206 57.3529 21.6618 56.7882 20.6383 55.7647L4.23532 39.3706C3.21179 38.347 2.64709 36.9882 2.64709 35.5411C2.64709 34.0941 3.21179 32.7353 4.23532 31.7117L13.1118 22.8264C13.4559 22.4823 13.4559 21.9264 13.1118 21.5823C12.7677 21.2382 12.2118 21.2382 11.8677 21.5823L2.98238 30.4676C1.63238 31.8176 0.882381 33.6176 0.882381 35.5411C0.882381 37.4647 1.63238 39.2647 2.98238 40.6147L19.3853 57.0176C20.7883 58.4117 22.6236 59.1176 24.4677 59.1176Z" fill="#698CF0"/>
<path d="M17.8324 43.0499C18.0618 43.0499 18.2824 42.9617 18.4589 42.794L42.7854 18.4587C43.1295 18.1146 43.1295 17.5587 42.7854 17.2146C42.4413 16.8705 41.8854 16.8705 41.5413 17.2146L17.2148 41.5411C16.8707 41.8852 16.8707 42.4411 17.2148 42.7852C17.3824 42.9617 17.6118 43.0499 17.8324 43.0499Z" fill="#698CF0"/>
<path d="M52.1296 20.1882C54.0707 22.1294 54.0707 25.2882 52.1296 27.2294C50.1796 29.1794 47.0296 29.1706 45.0884 27.2294C43.1384 25.2794 43.1384 22.1382 45.0884 20.1882C47.0296 18.247 50.1796 18.2382 52.1296 20.1882ZM46.3413 25.9764C47.5943 27.2294 49.6325 27.2294 50.8854 25.9764C52.1384 24.7235 52.1384 22.6853 50.8854 21.4323C49.6325 20.1794 47.5943 20.1794 46.3413 21.4323C45.0884 22.6941 45.0884 24.7235 46.3413 25.9764Z" fill="#698CF0"/>
<path d="M39.8117 7.87056C41.7529 9.81173 41.7529 12.9706 39.8117 14.9117C37.8617 16.8617 34.7117 16.8529 32.7705 14.9117C30.8205 12.9617 30.8205 9.82056 32.7705 7.87056C34.7205 5.92938 37.8705 5.92938 39.8117 7.87056ZM34.0235 13.6588C35.2764 14.9117 37.3146 14.9117 38.5676 13.6588C39.8205 12.4058 39.8205 10.3676 38.5676 9.11467C37.3146 7.86173 35.2764 7.86173 34.0235 9.11467C32.7705 10.3676 32.7705 12.4058 34.0235 13.6588Z" fill="#698CF0"/>
<path d="M43.8263 28.4912C45.7675 30.4324 45.7675 33.5912 43.8263 35.5324C41.8763 37.4824 38.7263 37.4735 36.7852 35.5324C34.8352 33.5824 34.8352 30.4412 36.7852 28.4912C38.7263 26.55 41.8852 26.5412 43.8263 28.4912ZM38.0381 34.2794C39.2911 35.5323 41.3293 35.5323 42.5822 34.2794C43.8352 33.0265 43.8352 30.9882 42.5822 29.7353C41.3293 28.4824 39.2911 28.4824 38.0381 29.7353C36.7852 30.9882 36.7852 33.0265 38.0381 34.2794Z" fill="#698CF0"/>
<path d="M31.509 16.1735C33.4501 18.1147 33.4501 21.2735 31.509 23.2147C29.559 25.1647 26.409 25.1559 24.4678 23.2147C22.5178 21.2647 22.5178 18.1235 24.4678 16.1735C26.4178 14.2324 29.5678 14.2324 31.509 16.1735ZM25.7207 21.9618C26.9737 23.2147 29.0119 23.2147 30.2648 21.9618C31.5178 20.7088 31.5178 18.6706 30.2648 17.4177C29.0119 16.1647 26.9737 16.1647 25.7207 17.4177C24.4678 18.6706 24.4678 20.7088 25.7207 21.9618Z" fill="#698CF0"/>
<path d="M35.5236 36.794C37.4648 38.7352 37.4648 41.894 35.5236 43.8352C33.5736 45.7852 30.4236 45.7764 28.4824 43.8352C26.5324 41.8852 26.5324 38.744 28.4824 36.794C30.4324 34.8529 33.5824 34.844 35.5236 36.794ZM29.7354 42.5823C30.9883 43.8352 33.0266 43.8352 34.2795 42.5823C35.5324 41.3293 35.5324 39.2911 34.2795 38.0381C33.0266 36.7852 30.9883 36.7852 29.7354 38.0381C28.4824 39.2911 28.4824 41.3293 29.7354 42.5823Z" fill="#698CF0"/>
<path d="M23.2145 24.4764C25.1557 26.4176 25.1557 29.5764 23.2145 31.5176C21.2645 33.4676 18.1145 33.4588 16.1734 31.5176C14.2234 29.5676 14.2234 26.4264 16.1734 24.4764C18.1145 22.5352 21.2645 22.5264 23.2145 24.4764ZM17.4175 30.2646C18.6704 31.5176 20.7086 31.5176 21.9616 30.2646C23.2145 29.0117 23.2145 26.9735 21.9616 25.7205C20.7086 24.4676 18.6704 24.4676 17.4175 25.7205C16.1645 26.9735 16.1645 29.0117 17.4175 30.2646Z" fill="#698CF0"/>
<path d="M27.2204 45.097C29.1616 47.0382 29.1616 50.197 27.2204 52.1382C25.2704 54.0882 22.1204 54.0794 20.1792 52.1382C18.2292 50.1882 18.2292 47.047 20.1792 45.097C22.1292 43.1558 25.2792 43.147 27.2204 45.097ZM21.4322 50.8852C22.6851 52.1382 24.7233 52.1382 25.9763 50.8852C27.2292 49.6323 27.2292 47.5941 25.9763 46.3411C24.7233 45.0882 22.6851 45.0882 21.4322 46.3411C20.1792 47.5941 20.1792 49.6323 21.4322 50.8852Z" fill="#698CF0"/>
<path d="M14.9118 32.7794C16.853 34.7206 16.853 37.8794 14.9118 39.8206C12.9618 41.7706 9.81179 41.7617 7.87061 39.8206C5.92061 37.8706 5.92061 34.7294 7.87061 32.7794C9.81179 30.8382 12.9618 30.8294 14.9118 32.7794ZM9.11473 38.5676C10.3677 39.8206 12.4059 39.8206 13.6589 38.5676C14.9118 37.3147 14.9118 35.2764 13.6589 34.0235C12.4059 32.7706 10.3677 32.7706 9.11473 34.0235C7.86179 35.2764 7.86179 37.3147 9.11473 38.5676Z" fill="#698CF0"/>
</g>
<defs>
<clipPath id="clip0_29_773">
<rect width="60" height="60" fill="white" transform="matrix(-1 0 0 1 60 0)"/>
</clipPath>
</defs>
</svg>
